<?xml version="1.0" standalone="no"?>
<!DOCTYPE svg PUBLIC "-//W3C//DTD SVG 20010904//EN"
 "http://www.w3.org/TR/2001/REC-SVG-20010904/DTD/svg10.dtd">
<svg version="1.0" xmlns="http://www.w3.org/2000/svg"
 width="650.000000pt" height="433.000000pt" viewBox="0 0 650.000000 433.000000"
 preserveAspectRatio="xMidYMid meet">

<g transform="translate(0.000000,433.000000) scale(0.100000,-0.100000)"
fill="#000000" stroke="none">
<path d="M2 4189 l3 -141 245 -161 c135 -88 322 -209 415 -270 94 -60 172
-111 174 -113 2 -2 1 -10 -2 -18 -5 -13 -19 -7 -71 29 l-64 45 -20 -34 c-18
-30 -19 -36 -6 -47 15 -12 20 -34 5 -25 -5 3 -14 -1 -21 -9 -9 -11 -9 -15 -1
-15 7 0 9 -4 6 -10 -3 -6 1 -7 9 -4 9 3 16 10 16 14 0 4 10 10 23 12 21 4 22
1 18 -31 -2 -25 1 -38 14 -48 17 -12 17 -14 2 -31 -9 -10 -17 -23 -17 -29 0
-20 -30 -37 -42 -25 -7 7 -25 12 -41 12 -29 0 -29 0 -25 55 1 30 0 55 -3 55
-4 0 -19 -19 -34 -41 -30 -46 -32 -43 47 -84 26 -14 49 -29 53 -35 8 -13 -25
-61 -38 -53 -5 3 -7 2 -4 -4 9 -15 -15 -61 -38 -72 -11 -5 -15 -10 -8 -10 14
-1 6 -36 -12 -51 -10 -9 -19 -6 -34 9 -12 12 -32 21 -46 21 -24 0 -27 -4 -27
-35 0 -31 3 -36 20 -31 9 3 25 -1 35 -8 17 -13 17 -16 -10 -65 -23 -41 -32
-49 -50 -45 -15 4 -25 0 -33 -16 -11 -21 -11 -21 14 -5 14 10 26 14 26 11 0
-19 -32 -65 -49 -71 -11 -3 -25 -12 -32 -21 -10 -13 -8 -13 15 -5 l26 11 -16
-31 c-15 -30 -16 -30 -30 -11 -16 23 -42 32 -69 22 -18 -6 -17 -8 10 -23 26
-14 27 -16 8 -17 -12 0 -23 6 -26 13 -2 6 -8 8 -13 4 -13 -12 10 -41 42 -52
16 -5 30 -10 32 -11 11 -6 -15 -34 -32 -34 -15 0 -17 -3 -7 -9 11 -7 10 -13
-4 -34 -14 -22 -20 -25 -42 -16 -35 13 -39 5 -13 -21 l22 -22 -27 -28 c-17
-18 -23 -30 -16 -35 19 -11 1 -25 -24 -21 -37 7 -47 16 -42 38 4 14 2 18 -9
14 -9 -3 -22 1 -30 9 -22 22 -39 18 -52 -10 -15 -32 -15 -35 -1 -35 5 0 8 4 5
9 -3 5 1 14 8 20 10 8 16 9 21 1 3 -5 15 -10 26 -10 10 0 19 -5 19 -10 0 -17
-31 -24 -41 -9 -5 8 -9 9 -9 3 0 -6 11 -23 25 -38 14 -15 25 -22 25 -15 0 8 4
8 15 -1 8 -7 15 -17 15 -22 0 -12 -40 0 -62 20 -17 14 -18 13 -18 -9 0 -18 10
-31 34 -45 34 -19 34 -20 18 -42 l-17 -22 -78 26 c-43 14 -80 24 -83 21 -3 -2
-4 -33 -2 -68 l3 -64 25 48 c15 29 32 47 42 47 25 0 23 -7 -27 -96 -25 -43
-45 -83 -45 -89 1 -12 30 25 30 37 0 4 5 8 11 8 5 0 2 -13 -8 -30 -9 -16 -20
-30 -24 -30 -4 0 -7 -39 -7 -87 -1 -79 1 -86 14 -69 8 11 14 23 14 28 0 4 5 8
10 8 6 0 -1 -18 -15 -40 l-25 -40 0 -965 0 -965 902 0 c496 0 899 2 897 3 -2
2 -105 56 -229 120 -124 63 -295 152 -380 197 -154 80 -187 91 -225 75 -18 -8
-19 -7 -6 8 7 9 25 17 39 17 13 0 97 -38 186 -84 88 -46 270 -140 404 -210
l242 -126 120 0 120 0 0 85 c0 65 3 86 15 92 14 8 14 19 0 98 -9 50 -32 144
-51 209 l-36 119 24 19 c12 9 27 18 31 18 5 0 5 5 2 11 -5 7 -13 5 -25 -6 -11
-10 -24 -14 -31 -9 -8 4 -10 3 -5 -4 11 -18 -20 -14 -34 3 -11 13 -15 13 -21
3 -6 -9 -8 -7 -7 7 1 11 -2 30 -6 42 -4 12 -2 24 4 28 8 5 8 11 0 20 -6 8 -10
26 -8 40 l3 27 28 -26 c32 -30 39 -32 31 -11 -8 21 13 19 25 -2 10 -17 10 -17
11 0 0 9 -6 18 -12 19 -7 0 -17 2 -23 3 -5 2 -16 3 -23 4 -7 0 -10 5 -7 11 7
11 -10 47 -37 76 l-19 21 -29 -28 c-53 -53 -68 -48 -439 148 -185 97 -385 202
-446 234 -387 202 -639 340 -651 356 -26 32 -11 91 50 200 l58 103 38 -20 c43
-22 60 -25 60 -11 0 5 17 40 39 78 21 37 103 187 183 333 298 543 576 1043
639 1148 l38 62 -40 20 c-21 11 -39 25 -39 30 0 19 101 186 126 208 16 14 38
22 59 22 26 0 220 -93 725 -345 607 -304 691 -349 706 -376 9 -19 13 -41 9
-56 -6 -25 -442 -864 -454 -873 -3 -3 -6 -9 -6 -15 0 -20 -97 -195 -105 -190
-5 3 -12 0 -16 -6 -4 -8 -3 -9 4 -5 7 4 12 5 12 1 0 -10 -50 -105 -56 -105 -2
0 0 9 6 21 7 11 10 23 7 25 -4 4 -29 -52 -43 -100 -13 -44 -29 -41 -32 4 -3
41 -37 147 -53 165 -16 17 -10 -50 10 -107 10 -30 22 -89 25 -129 12 -137 27
-206 58 -267 11 -21 13 -22 19 -5 3 10 3 27 -1 38 -4 11 -7 34 -6 50 0 17 -5
36 -11 43 -7 7 -13 31 -13 52 0 21 -4 42 -10 45 -5 3 -10 19 -10 35 0 23 7 33
31 45 38 20 45 14 30 -23 -18 -44 -6 -161 35 -324 8 -32 14 -83 14 -114 0 -52
-1 -55 -17 -43 -11 10 -14 10 -9 2 4 -7 3 -13 -3 -13 -5 0 -13 5 -16 10 -4 6
-10 8 -15 5 -9 -5 -8 57 1 65 8 7 -10 72 -19 66 -4 -2 -18 1 -30 8 -21 11 -27
9 -60 -23 -37 -35 -51 -86 -27 -103 6 -5 5 -11 -4 -17 -17 -11 -22 -109 -6
-115 6 -3 3 -9 -5 -15 -11 -8 -12 -11 -2 -11 8 0 12 -8 10 -18 -2 -9 -8 -17
-15 -17 -6 0 -15 -3 -19 -8 -4 -4 -2 -7 4 -7 6 0 13 -14 17 -30 7 -33 25 -32
25 2 0 11 9 31 20 45 18 23 25 23 21 1 0 -5 2 -8 7 -8 4 0 14 -15 22 -32 14
-32 14 -32 20 -9 5 21 7 22 18 8 9 -10 10 -17 2 -22 -16 -10 -12 -25 8 -25 10
0 13 -3 6 -8 -19 -13 -25 -42 -9 -42 8 0 15 -9 15 -21 0 -11 -4 -18 -8 -15 -4
2 -9 -5 -9 -16 -1 -11 -10 -26 -20 -34 -21 -15 -37 -18 -29 -5 3 5 -1 12 -10
15 -8 3 -13 2 -9 -3 8 -15 -6 -41 -22 -41 -10 0 -13 6 -8 18 4 12 3 14 -5 6
-13 -13 -2 -46 14 -41 6 3 19 -2 28 -10 15 -14 15 -16 -1 -32 -17 -17 -51 -24
-51 -11 0 4 -13 7 -30 8 -31 1 -35 -4 -21 -26 6 -10 10 -10 21 2 7 9 16 13 21
10 14 -8 11 -24 -3 -21 -7 1 -12 -5 -10 -13 2 -8 0 -12 -4 -8 -4 4 -20 -4 -37
-18 -21 -18 -37 -24 -54 -19 -33 8 -29 -1 6 -13 23 -8 36 -7 62 7 26 14 41 16
71 8 30 -7 43 -6 63 7 13 9 33 16 44 16 23 0 51 -54 51 -100 0 -19 4 -29 10
-25 7 4 9 -2 5 -18 -4 -14 -1 -36 6 -49 7 -12 12 -27 11 -32 -2 -5 0 -16 3
-25 5 -13 7 -13 15 -1 7 11 11 2 17 -30 4 -25 8 -57 8 -72 0 -14 2 -25 5 -23
3 2 14 -9 24 -23 11 -14 13 -22 6 -17 -10 6 -12 4 -7 -10 4 -9 2 -24 -4 -31
-6 -8 -8 -14 -3 -14 5 -1 -2 -7 -16 -15 -24 -14 -23 -15 20 -8 25 3 73 17 108
30 94 35 116 32 137 -19 11 -28 13 -44 6 -46 -6 -2 -11 -8 -11 -13 0 -6 4 -8
9 -5 5 3 8 0 8 -7 -1 -6 5 -33 13 -60 l14 -47 710 2 c681 3 711 4 714 21 6 29
79 100 88 85 4 -6 2 -14 -4 -16 -7 -2 -9 -9 -5 -15 4 -6 0 -8 -10 -4 -9 3 -20
1 -24 -5 -9 -16 -10 -58 -1 -58 4 0 34 40 68 89 34 49 80 110 103 135 l43 45
-22 18 c-12 10 -25 30 -28 44 -5 22 -1 27 29 38 20 7 33 17 30 22 -3 5 2 6 11
2 12 -4 15 -3 10 6 -5 8 -3 11 5 10 8 -1 22 1 32 6 17 7 17 9 1 34 l-17 26 21
-19 c20 -18 23 -18 57 -2 19 9 42 27 50 39 8 12 39 40 70 62 96 68 94 66 60
59 -38 -9 -47 -13 -40 -24 3 -4 -2 -11 -10 -14 -10 -3 -18 1 -22 12 -4 9 -11
20 -17 24 -6 4 6 8 27 8 34 0 37 2 23 15 -8 8 -20 15 -26 15 -29 0 3 16 36 18
20 2 41 5 45 8 5 3 18 0 30 -7 15 -8 23 -8 28 0 6 10 83 41 102 41 5 0 9 -11
9 -25 0 -16 6 -25 15 -25 24 0 65 -31 65 -49 0 -9 18 -27 39 -40 22 -13 54
-36 71 -51 32 -27 32 -27 8 -33 l-23 -7 23 -15 c18 -14 20 -20 11 -37 -8 -15
-14 -17 -22 -9 -16 16 -47 13 -47 -5 0 -8 4 -13 9 -10 5 3 14 -1 21 -9 7 -9
21 -13 30 -10 13 4 28 -7 50 -35 39 -49 31 -68 -9 -22 -32 36 -47 42 -31 12 6
-11 7 -20 3 -20 -4 -1 1 -8 12 -18 22 -18 55 -62 55 -73 0 -4 -15 -5 -32 -4
-45 4 -42 3 -64 23 -10 9 -31 23 -46 31 -16 8 -28 21 -28 28 0 8 -7 21 -15 29
-20 20 -19 11 5 -40 13 -30 27 -46 45 -50 28 -7 85 -57 85 -74 0 -5 9 -8 20
-5 12 3 20 0 20 -6 0 -7 5 -9 12 -5 6 4 8 3 5 -3 -4 -6 10 -27 30 -46 34 -34
35 -37 23 -66 -7 -17 -16 -31 -21 -31 -5 0 -9 -4 -9 -10 0 -5 21 -10 48 -10
34 0 69 11 130 40 137 66 196 83 297 83 88 1 119 -6 218 -47 28 -12 37 -22 37
-40 0 -16 7 -26 23 -30 12 -3 122 -6 245 -6 l222 0 0 335 c0 297 -2 335 -16
335 -8 0 -12 -5 -8 -11 4 -7 -2 -9 -17 -7 -19 2 -24 9 -24 33 0 24 -7 33 -40
52 -50 29 -60 29 -41 1 20 -28 20 -38 1 -38 -17 0 -65 43 -65 59 0 5 7 11 15
13 14 3 14 5 0 26 -9 12 -25 22 -35 22 -15 0 -107 36 -141 56 -3 2 -5 -6 -5
-18 1 -27 -22 -35 -31 -11 -3 10 -12 25 -20 35 -23 26 1 33 107 33 l95 1 3 45
c2 32 -2 50 -13 59 -19 16 -19 47 0 66 11 12 12 20 5 35 -6 10 -15 19 -21 19
-6 0 -7 -5 -3 -11 4 -7 1 -10 -7 -7 -8 3 -13 12 -11 21 1 9 -6 17 -18 19 -12
2 -30 18 -41 36 -19 28 -19 32 -4 32 9 0 14 -3 12 -7 -3 -5 4 -17 14 -27 19
-19 19 -19 19 0 0 10 3 36 6 56 6 32 2 40 -22 63 -24 22 -29 24 -36 10 -11
-18 -2 -35 17 -35 16 0 40 -38 30 -48 -4 -4 -13 2 -21 12 -11 16 -16 17 -30 5
-12 -10 -15 -24 -11 -54 l5 -40 -14 30 c-7 17 -13 55 -14 86 0 65 30 132 88
191 41 43 36 65 -6 25 -16 -15 -32 -27 -38 -27 -5 1 4 11 19 23 15 13 30 35
32 50 3 14 19 52 35 84 16 31 28 58 26 60 -12 12 -36 -19 -69 -89 -23 -49 -41
-77 -46 -70 -5 8 -22 -3 -50 -32 -24 -25 -49 -42 -55 -40 -7 3 -21 -4 -31 -16
-18 -20 -62 -29 -50 -10 3 5 14 10 24 10 21 0 61 78 61 120 0 23 4 30 20 30
11 0 20 4 20 10 0 5 -3 9 -7 9 -20 -3 -21 3 -8 34 7 17 18 33 24 33 6 1 17 2
25 3 7 0 16 14 18 30 2 17 1 28 -4 25 -4 -3 -8 -13 -9 -22 0 -11 -3 -12 -6 -4
-7 19 -23 15 -48 -12 -15 -16 -19 -27 -12 -29 7 -3 -1 -18 -20 -39 -18 -19
-33 -41 -33 -49 0 -38 -143 -136 -186 -127 -12 2 4 12 43 28 56 22 64 29 87
75 14 28 26 57 26 66 0 8 11 30 25 49 14 19 25 37 25 42 0 7 47 73 86 121 8
10 28 20 44 24 24 4 29 10 25 24 -4 12 -1 21 9 25 9 3 14 10 11 14 -11 18 117
28 143 11 22 -13 26 -84 9 -135 -9 -25 -12 -46 -6 -46 5 0 9 4 9 8 0 5 11 15
25 22 22 12 23 15 10 23 -15 8 -15 10 1 28 14 15 14 21 4 34 -7 8 -9 15 -5 15
4 0 1 8 -6 17 -13 16 -12 16 14 0 16 -10 40 -17 55 -15 l27 3 3 1223 2 1222
-1431 0 c-1359 0 -1431 -1 -1424 -17 20 -45 44 -120 45 -135 0 -32 20 -29 86
11 37 21 72 37 79 35 16 -7 39 -50 32 -61 -5 -8 -29 -21 -149 -80 -48 -23 -30
-6 26 26 53 31 79 61 52 61 -18 0 -126 -57 -267 -141 -64 -38 -120 -69 -124
-69 -5 0 0 10 11 22 l19 22 -36 -22 c-35 -21 -70 -32 -39 -12 9 6 10 10 3 10
-6 0 -19 7 -28 16 -14 15 -14 19 7 48 13 17 36 51 52 76 l28 45 -46 -47 c-26
-27 -58 -55 -71 -64 -14 -9 -22 -21 -18 -27 4 -6 0 -8 -10 -4 -9 3 -19 1 -23
-5 -4 -6 -3 -8 4 -4 6 3 13 2 16 -3 3 -5 -9 -16 -26 -24 -26 -13 -36 -13 -48
-4 -10 8 -40 11 -87 9 -71 -4 -71 -4 -67 -30 7 -34 32 -62 56 -62 29 0 13 -17
-23 -24 -17 -3 -46 -21 -65 -40 -60 -60 -42 -145 37 -166 21 -6 55 -8 74 -4
22 4 35 2 35 -5 0 -6 8 -8 18 -4 31 11 64 47 87 96 17 36 36 57 76 82 30 19
60 35 67 35 7 0 10 5 7 10 -3 6 1 10 9 10 8 0 21 12 28 27 18 37 221 144 226
119 6 -29 -18 -121 -47 -182 -101 -206 -313 -327 -546 -311 -208 15 -387 133
-475 312 -71 144 -76 292 -15 423 l24 52 -1004 0 c-553 0 -1005 -2 -1005 -5 0
-2 33 -30 73 -61 92 -73 93 -74 81 -74 -6 0 -51 32 -100 70 -87 69 -90 70
-148 70 -48 0 -62 -4 -79 -22 l-19 -23 7 25 c12 43 -15 6 -100 -135 -43 -71
-80 -132 -82 -134 -3 -4 -83 49 -83 56 0 2 9 -1 21 -7 17 -10 21 -8 26 9 3 11
22 31 42 44 35 23 88 106 106 165 l6 22 -191 0 -191 0 3 -141z m583 111 c3 -5
1 -10 -4 -10 -6 0 -11 5 -11 10 0 6 2 10 4 10 3 0 8 -4 11 -10z m-31 -65 c-9
-14 -19 -24 -21 -21 -6 6 20 46 30 46 4 0 0 -11 -9 -25z m-134 5 c0 -5 -4 -10
-10 -10 -5 0 -10 5 -10 10 0 6 5 10 10 10 6 0 10 -4 10 -10z m190 -20 c0 -5
-2 -10 -4 -10 -3 0 -8 5 -11 10 -3 6 -1 10 4 10 6 0 11 -4 11 -10z m-80 -24
c0 -2 -7 -9 -15 -16 -13 -11 -14 -10 -9 4 5 14 24 23 24 12z m55 -23 c-22 -40
-29 -53 -52 -98 -20 -38 -43 -58 -43 -37 0 15 93 162 103 162 4 0 1 -12 -8
-27z m-85 -21 c0 -5 -7 -17 -15 -28 -14 -18 -14 -17 -4 9 12 27 19 34 19 19z
m150 3 c0 -6 -53 -103 -77 -143 -23 -38 -33 -14 -10 26 12 20 26 42 33 49 6 6
17 25 24 42 10 26 30 43 30 26z m-302 -34 c-7 -12 -16 -21 -21 -21 -4 0 0 11
9 25 20 30 31 26 12 -4z m48 -33 c-8 -13 -23 -39 -33 -58 -9 -19 -28 -45 -41
-56 -16 -14 -22 -27 -17 -35 6 -11 5 -11 -4 -3 -9 8 0 30 40 93 28 44 56 81
62 81 5 0 2 -10 -7 -22z m271 -38 c-6 -11 -15 -20 -19 -20 -5 0 -8 -8 -8 -19
0 -20 -25 -47 -33 -34 -7 11 55 103 65 97 4 -3 2 -14 -5 -24z m146 -5 c-3 -9
-8 -14 -10 -11 -3 3 -2 9 2 15 9 16 15 13 8 -4z m-535 -47 c-12 -18 -24 -26
-26 -20 -5 15 28 63 39 56 5 -3 -1 -19 -13 -36z m170 -69 c-18 -30 -34 -56
-35 -58 -2 -3 -9 1 -15 7 -7 7 -8 12 -2 12 5 0 22 25 39 55 16 30 33 51 38 46
4 -4 -7 -32 -25 -62z m92 34 c0 -3 -16 -35 -36 -71 -24 -42 -39 -61 -46 -54
-6 6 3 31 29 71 34 54 53 73 53 54z m335 -38 c-10 -19 -22 -35 -27 -35 -12 0
-10 5 13 45 27 45 40 36 14 -10z m2345 37 c0 -11 -78 -37 -86 -30 -7 8 45 36
69 37 9 1 17 -3 17 -7z m-2272 -22 c-7 -10 -14 -17 -17 -15 -4 4 18 35 25 35
2 0 -1 -9 -8 -20z m2307 10 c-3 -5 -10 -10 -16 -10 -5 0 -9 5 -9 10 0 6 7 10
16 10 8 0 12 -4 9 -10z m-2690 -82 c-27 -48 -52 -75 -61 -65 -3 3 3 15 13 26
10 12 18 25 19 29 0 4 9 21 20 39 29 50 38 23 9 -29z m426 39 c-10 -9 -11 -8
-5 6 3 10 9 15 12 12 3 -3 0 -11 -7 -18z m2136 7 c-3 -3 -12 -4 -19 -1 -8 3
-5 6 6 6 11 1 17 -2 13 -5z m268 -4 c-3 -5 -16 -15 -28 -21 -19 -9 -19 -8 3
10 28 23 34 26 25 11z m-2673 -22 c-7 -7 -12 -8 -12 -2 0 14 12 26 19 19 2 -3
-1 -11 -7 -17z m187 -18 c-12 -22 -24 -38 -26 -36 -4 4 37 76 44 76 2 0 -6
-18 -18 -40z m-259 25 c0 -12 -52 -87 -57 -82 -6 7 39 87 50 87 4 0 7 -2 7 -5z
m376 -37 c-14 -24 -30 -44 -36 -46 -6 -2 3 17 20 42 39 58 50 60 16 4z m-263
7 c-3 -9 -8 -14 -10 -11 -3 3 -2 9 2 15 9 16 15 13 8 -4z m192 -24 c-8 -17
-20 -33 -26 -37 -11 -7 5 29 24 54 17 21 18 13 2 -17z m2175 19 c0 -5 -10 -15
-22 -21 -23 -12 -23 -12 -4 10 21 23 26 26 26 11z m85 -12 c-6 -22 -5 -22 9
-5 10 13 25 17 51 15 l36 -3 -34 -37 c-36 -40 -57 -48 -57 -23 0 18 -23 19
-52 4 -11 -6 -22 -8 -25 -6 -9 9 21 45 33 40 7 -2 19 5 26 16 17 27 21 27 13
-1z m-2519 -23 c-9 -14 -21 -25 -27 -25 -6 0 -1 14 11 31 26 36 40 31 16 -6z
m54 0 c0 -11 -45 -75 -53 -75 -4 0 3 18 15 40 20 35 38 51 38 35z m481 -17 c0
-7 2 -22 4 -32 2 -11 -4 -26 -13 -34 -16 -13 -16 -13 1 -8 10 3 15 2 12 -3 -7
-12 -46 -11 -61 1 -7 5 -16 2 -23 -6 -10 -11 -9 -16 5 -24 10 -5 19 -23 20
-40 2 -25 -3 -31 -24 -37 -16 -4 -28 -1 -33 7 -5 7 -9 8 -9 3 0 -6 6 -17 13
-25 10 -12 9 -12 -6 0 -11 8 -21 10 -27 4 -14 -14 -23 -97 -10 -89 5 3 10 15
10 26 0 11 5 17 10 14 6 -3 10 -20 10 -36 0 -23 -4 -30 -17 -27 -10 2 -23 14
-29 26 -12 24 -16 22 -27 -10 -4 -11 -2 -15 7 -12 7 3 19 -3 27 -12 12 -16 12
-17 -2 -12 -17 7 -39 -8 -39 -26 0 -5 7 -1 15 10 17 22 20 12 5 -16 -7 -12 -7
-21 0 -25 6 -4 4 -16 -6 -31 -15 -23 -18 -23 -39 -10 -14 9 -27 11 -36 5 -11
-7 -11 -9 -1 -9 9 0 11 -7 6 -22 -6 -20 -5 -21 9 -10 10 9 17 10 22 2 4 -6 3
-9 -2 -8 -4 1 -21 -9 -36 -24 -25 -24 -26 -27 -11 -36 9 -5 14 -14 10 -21 -5
-7 -12 -9 -19 -3 -17 12 -56 12 -63 0 -4 -7 -2 -8 5 -4 6 4 24 -3 39 -15 15
-13 19 -19 9 -16 -22 8 -36 -21 -16 -34 9 -6 10 -9 2 -9 -6 0 -15 5 -18 10 -9
15 -22 12 -29 -6 -4 -10 1 -22 11 -29 10 -8 15 -17 11 -21 -4 -4 -15 -1 -23 6
-13 11 -19 10 -33 -5 -16 -18 -16 -18 1 -6 25 20 29 10 6 -19 -19 -24 -20 -25
-34 -6 -8 11 -15 16 -15 10 0 -5 9 -20 20 -34 39 -49 19 -77 -30 -43 -25 17
-25 17 -7 -4 11 -12 14 -24 9 -27 -6 -3 -13 0 -16 6 -3 7 -3 0 1 -15 5 -25 3
-28 -13 -25 -11 2 -18 11 -17 22 1 12 -2 15 -9 8 -7 -7 -4 -20 11 -40 19 -27
28 -62 16 -62 -12 0 -75 35 -75 41 0 8 225 407 383 679 53 91 101 164 106 163
6 -2 7 5 4 14 -4 10 -2 14 5 9 6 -3 13 -2 17 4 9 14 25 13 26 -2z m39 -108
c-24 -39 -45 -69 -47 -66 -3 2 14 37 37 76 23 39 44 69 47 67 3 -3 -14 -37
-37 -77z m1770 27 c0 -5 -7 -4 -15 3 -8 7 -15 20 -15 29 1 13 3 13 15 -3 8
-11 15 -24 15 -29z m-2398 -58 c59 -39 105 -75 102 -80 -5 -9 -223 131 -224
144 0 14 16 6 122 -64z m568 21 c0 -5 -4 -10 -10 -10 -5 0 -10 5 -10 10 0 6 5
10 10 10 6 0 10 -4 10 -10z m2961 -44 c4 -5 14 -6 22 -3 19 7 97 -13 97 -25 0
-5 5 -6 10 -3 6 4 34 1 64 -5 46 -9 53 -14 49 -30 -4 -15 0 -20 15 -20 11 0
23 8 25 18 4 13 5 11 6 -5 1 -14 7 -23 17 -23 10 0 14 6 10 15 -3 8 -1 15 4
15 6 0 10 -9 10 -20 0 -11 4 -20 9 -20 5 0 16 -3 25 -6 12 -4 16 0 17 17 1 21
2 20 9 -6 l7 -30 12 25 c11 23 11 23 7 3 -2 -13 0 -23 5 -23 5 0 9 7 9 15 0
20 3 19 159 -18 146 -35 162 -46 145 -94 -8 -23 -15 -28 -39 -26 -64 4 -205
38 -210 51 -2 7 0 10 5 7 6 -3 10 0 10 8 0 16 -41 18 -52 2 -5 -6 -8 -5 -8 3
0 6 -7 12 -15 12 -8 0 -15 -6 -16 -12 0 -7 -2 -8 -5 -3 -2 6 -22 10 -44 9 -27
0 -40 4 -40 13 0 7 -5 13 -11 13 -5 0 -7 5 -3 12 4 6 3 8 -4 4 -6 -3 -29 -2
-51 3 -31 7 -41 5 -45 -5 -6 -16 -37 -8 -33 9 3 15 -59 27 -72 14 -14 -14 -43
-18 -35 -6 3 5 10 6 16 3 6 -4 9 -1 6 6 -2 8 -17 18 -33 23 -22 8 -30 6 -37
-7 -7 -12 -13 -14 -22 -7 -7 6 -35 12 -62 13 l-50 3 8 48 c12 66 4 70 -17 8
-15 -45 -19 -49 -38 -42 -12 4 -28 6 -34 4 -7 -3 -13 2 -13 11 0 10 -7 13 -26
10 -21 -4 -25 -1 -20 13 3 10 8 30 11 45 6 21 14 28 38 30 37 3 199 -32 208
-46z m-3292 -40 c-7 -14 -16 -26 -21 -26 -5 0 -1 13 8 30 21 35 30 33 13 -4z
m291 10 c0 -3 -4 -8 -10 -11 -5 -3 -10 -1 -10 4 0 6 5 11 10 11 6 0 10 -2 10
-4z m59 -10 c14 -17 0 -29 -23 -20 -17 7 -20 16 -9 27 10 11 19 8 32 -7z m-23
-38 c4 -6 -1 -18 -12 -27 -10 -9 -19 -22 -20 -28 -2 -29 -5 -33 -19 -33 -19 0
-20 24 -1 39 8 7 17 23 20 36 7 27 20 32 32 13z m3149 -99 c237 -39 443 -77
459 -85 16 -8 35 -14 43 -14 15 0 17 -28 4 -63 -8 -20 -16 -24 -53 -25 -63 -1
-77 5 -71 31 l5 22 -19 -22 -18 -21 -170 28 c-93 16 -222 38 -285 50 -63 11
-135 23 -160 25 -60 7 -223 35 -228 40 -2 2 1 29 8 59 10 50 14 55 33 51 12
-3 216 -37 452 -76z m60 13 c-3 -3 -11 0 -18 7 -9 10 -8 11 6 5 10 -3 15 -9
12 -12z m-3261 -20 c2 -4 1 -14 -4 -22 -7 -11 -11 -11 -24 -1 -9 8 -16 17 -16
22 0 11 37 12 44 1z m-44 -62 c13 -8 13 -11 -2 -27 -21 -20 -43 -6 -32 20 7
19 13 21 34 7z m-318 -55 c-15 -24 -30 -45 -34 -45 -4 0 5 20 20 45 15 25 30
45 34 45 4 0 -5 -20 -20 -45z m288 -10 c-7 -8 -17 -15 -22 -15 -6 0 -5 7 2 15
7 8 17 15 22 15 6 0 5 -7 -2 -15z m-260 -5 c0 -5 -4 -10 -10 -10 -5 0 -10 5
-10 10 0 6 5 10 10 10 6 0 10 -4 10 -10z m170 -30 c0 -5 -4 -10 -10 -10 -5 0
-10 5 -10 10 0 6 5 10 10 10 6 0 10 -4 10 -10z m63 -5 c8 -18 -11 -31 -25 -17
-11 11 -3 32 12 32 4 0 10 -7 13 -15z m3462 -45 l0 -35 -90 -7 c-49 -4 -155
-10 -235 -13 -144 -5 -238 -11 -295 -20 -16 -2 -65 -7 -107 -11 -43 -4 -78
-11 -78 -15 0 -5 -1 -12 -2 -16 -2 -5 17 -11 42 -14 l45 -6 -57 -1 c-31 -1
-63 -5 -72 -8 -14 -5 -16 5 -16 69 l0 74 133 7 c72 3 186 9 252 12 296 15 441
21 460 20 16 -1 20 -8 20 -36z m97 34 c38 -7 57 -29 39 -47 -7 -7 -15 -6 -24
2 -12 9 -16 8 -20 -2 -3 -8 -19 -16 -35 -19 -28 -4 -31 -1 -40 34 -10 37 -9
38 17 38 14 0 43 -3 63 -6z m983 -24 c3 -5 1 -10 -5 -10 -6 0 -8 -5 -5 -10 4
-6 3 -10 -2 -9 -20 3 -25 -2 -13 -16 7 -9 8 -15 2 -15 -16 0 -23 30 -12 51 12
21 25 25 35 9z m-4572 -13 c7 -20 -6 -37 -21 -28 -7 4 -10 15 -6 24 7 20 20
22 27 4z m-24 -41 c9 -10 8 -16 -4 -26 -20 -16 -38 -1 -29 23 8 21 18 22 33 3z
m4041 -34 c0 -17 -12 -20 -102 -26 -57 -3 -182 -15 -278 -25 -96 -10 -179 -16
-184 -13 -4 2 -11 -1 -15 -7 -5 -8 -47 -12 -124 -12 -106 0 -164 -6 -254 -25
-32 -6 -33 -5 -33 24 0 20 6 33 18 36 28 9 359 34 466 36 55 0 103 3 108 6 11
7 198 21 311 23 78 1 87 -1 87 -17z m-4067 -19 c8 -7 -11 -33 -24 -33 -5 0 -9
9 -9 20 0 19 20 27 33 13z m2890 -30 c-13 -2 -33 -2 -45 0 -13 2 -3 4 22 4 25
0 35 -2 23 -4z m-2983 -13 c0 -5 -4 -10 -10 -10 -5 0 -10 5 -10 10 0 6 5 10
10 10 6 0 10 -4 10 -10z m70 -9 c0 -14 -23 -29 -36 -24 -10 4 -11 10 -4 24 9
17 40 17 40 0z m2183 -24 c17 -12 17 -16 -2 -77 -10 -36 -34 -125 -52 -197
-31 -123 -46 -152 -64 -123 -3 6 -18 10 -32 10 -23 0 -25 3 -20 33 3 17 3 26
0 20 -2 -7 -8 -13 -12 -13 -19 0 45 235 83 309 24 45 67 62 99 38z m-2213 -32
c0 -17 -23 -25 -41 -14 -12 8 -11 12 5 24 21 16 36 12 36 -10z m3308 18 c-15
-2 -42 -2 -60 0 -18 2 -6 4 27 4 33 0 48 -2 33 -4z m-3718 -13 c8 -5 12 -11 9
-14 -3 -3 -14 1 -25 9 -21 16 -8 20 16 5z m3897 4 c-25 -25 -283 -47 -331 -28
-31 12 -15 22 22 13 51 -12 144 -9 222 6 81 15 95 17 87 9z m-3517 -57 c0 -21
-12 -28 -27 -16 -19 16 -16 29 7 29 11 0 20 -6 20 -13z m-30 -32 c11 -13 10
-14 -6 -8 -16 6 -17 5 -6 -9 10 -13 10 -18 1 -24 -8 -5 -9 -3 -4 6 6 10 4 12
-8 7 -20 -7 -21 -3 -7 24 13 23 14 23 30 4z m-136 -61 l47 -26 -32 -56 c-20
-35 -27 -58 -20 -60 6 -2 9 -8 6 -12 -6 -9 -45 19 -45 32 0 4 14 22 30 40 35
38 37 53 11 68 -29 15 -38 12 -15 -5 16 -13 17 -16 4 -25 -8 -6 -22 -9 -31 -7
-9 3 -16 -1 -16 -7 0 -6 -25 -53 -56 -105 -31 -52 -57 -98 -57 -103 0 -5 -4
-6 -10 -3 -5 3 -7 0 -4 -9 3 -8 -4 -24 -15 -35 -12 -12 -21 -25 -21 -29 0 -5
-8 -16 -19 -26 -18 -17 -18 -66 0 -66 5 0 9 -4 9 -10 0 -5 -9 -10 -19 -10 -27
0 -35 -17 -12 -25 13 -4 17 -12 14 -25 -3 -11 -10 -20 -15 -20 -5 0 -6 5 -2
11 7 12 -12 29 -33 29 -7 0 -20 -14 -29 -31 -8 -17 -11 -28 -5 -25 6 4 16 4
21 1 16 -10 -8 -35 -31 -35 -28 0 -23 -14 9 -28 27 -11 27 -11 -8 -7 -28 4
-38 1 -49 -17 -12 -19 -11 -23 5 -36 14 -10 15 -16 6 -19 -6 -3 -10 -8 -7 -12
2 -5 -7 -6 -20 -3 -34 6 -32 -11 2 -26 l28 -11 -34 2 c-31 2 -37 -3 -64 -46
-28 -46 -29 -49 -11 -62 18 -14 17 -14 -8 -15 -23 0 -32 -9 -54 -51 -14 -28
-24 -52 -22 -53 2 -1 14 -7 28 -14 23 -11 23 -11 -10 -6 -31 5 -37 2 -53 -26
-11 -17 -21 -29 -23 -27 -3 2 58 116 134 253 76 137 154 276 172 309 18 33 73
130 122 216 48 86 88 160 88 163 0 7 61 116 65 116 1 0 23 -12 49 -26z m-164
1 c-7 -8 -17 -15 -22 -15 -6 0 -5 7 2 15 7 8 17 15 22 15 6 0 5 -7 -2 -15z
m270 5 c11 -7 12 -12 3 -21 -16 -16 -44 -4 -37 16 7 17 13 18 34 5z m3242
-337 c407 -457 358 -411 453 -423 44 -6 105 -17 135 -26 32 -9 113 -18 195
-21 110 -4 156 -10 215 -29 89 -28 261 -56 347 -56 4 0 26 37 48 81 23 45 52
89 64 97 21 15 28 15 87 -5 35 -11 74 -21 87 -21 40 0 65 -11 70 -31 3 -11 0
-19 -6 -19 -7 0 -5 -5 3 -10 13 -8 12 -10 -2 -10 -10 0 -18 -5 -18 -10 0 -6 3
-9 8 -8 21 5 161 -28 172 -41 3 -3 21 -14 40 -23 19 -10 43 -23 52 -30 14 -10
24 -9 51 4 48 23 143 34 162 18 8 -7 12 -17 9 -22 -4 -6 -10 -5 -14 3 -13 20
-53 -12 -85 -68 -16 -26 -52 -82 -82 -124 -29 -42 -53 -79 -53 -83 0 -26 -125
-188 -173 -223 -38 -28 -53 -30 -30 -3 10 11 24 20 32 20 8 0 11 3 8 7 -4 3
-2 12 4 20 9 10 7 13 -12 13 l-23 0 26 28 c14 15 31 37 37 50 8 14 21 22 39
23 26 1 26 1 -5 11 -18 6 -33 14 -33 17 0 3 12 19 26 34 14 16 30 43 35 60 5
20 21 40 39 50 16 10 30 25 30 33 0 8 -4 12 -10 9 -5 -3 -10 -1 -10 4 0 15
-27 14 -34 -1 -5 -10 -7 -10 -12 1 -4 8 -16 -15 -29 -55 -30 -95 -94 -225
-108 -222 -26 4 -103 -16 -125 -32 -17 -14 -30 -16 -53 -10 -17 5 -36 7 -42 5
-7 -3 -19 0 -27 5 -13 9 -12 12 4 25 23 17 5 20 -25 5 -14 -8 -19 -7 -19 2 0
10 -3 9 -9 -1 -8 -12 -13 -12 -35 2 -31 21 -42 22 -26 2 7 -8 9 -15 4 -15 -5
0 -2 -4 6 -10 29 -18 0 -22 -47 -7 -26 9 -50 12 -53 7 -10 -16 -60 -16 -60 1
0 6 6 9 14 6 29 -11 106 102 130 193 6 24 6 24 -9 -2 -18 -32 -27 -37 -19 -10
5 15 4 15 -8 2 -7 -8 -17 -15 -23 -16 -38 -2 -145 -43 -145 -56 0 -4 -7 -8
-15 -8 -8 0 -15 7 -15 15 0 8 7 15 15 15 8 0 15 7 15 15 0 9 10 20 23 25 16 6
8 7 -28 4 -27 -3 -56 -8 -64 -10 -8 -3 -21 2 -31 11 -15 13 -20 13 -54 -5 -37
-18 -102 -18 -91 0 3 4 -5 10 -17 13 -13 4 -26 1 -30 -6 -4 -7 -8 2 -8 22 0
34 0 34 -20 16 -20 -18 -49 -21 -117 -13 -38 4 -47 12 -48 40 0 12 -4 23 -10
25 -15 4 -77 -36 -71 -46 3 -5 -8 -14 -24 -20 -17 -6 -43 -16 -60 -22 -16 -6
-30 -15 -30 -20 0 -5 -11 -11 -25 -15 -13 -3 -35 -20 -49 -38 -26 -35 -123
-83 -171 -84 -11 -1 -54 -12 -95 -26 -41 -13 -78 -22 -83 -19 -4 2 -19 -2 -32
-11 -18 -12 -25 -12 -28 -3 -4 9 -8 8 -16 -3 -5 -8 -8 -17 -5 -21 7 -12 -23
-18 -59 -12 -19 3 -59 -2 -90 -11 -66 -19 -69 -19 -65 -3 4 23 -13 57 -29 57
-20 0 -53 -29 -53 -46 0 -27 92 -36 200 -21 51 8 53 7 36 -7 -11 -9 -16 -19
-13 -23 4 -3 74 -6 155 -6 202 2 253 4 279 14 18 7 270 -25 280 -35 4 -3 -345
-330 -616 -578 -116 -106 -116 -106 -137 -87 -20 19 -21 19 -44 -6 -26 -28
-42 -33 -34 -10 4 8 2 15 -2 15 -5 0 -33 23 -62 50 -117 110 -125 114 -538
285 -461 191 -793 332 -814 345 -12 7 -6 27 35 121 l49 112 -30 23 c-16 13
-32 24 -36 24 -18 0 -1 31 132 232 119 181 152 239 214 383 47 110 78 169 87
168 8 -1 23 -5 34 -8 17 -5 32 10 89 94 37 56 69 101 71 101 2 0 31 -18 64
-40 33 -22 64 -40 68 -40 4 0 21 18 37 40 33 45 38 47 56 25 12 -14 16 -13 41
11 l28 27 47 -42 47 -41 60 53 c111 97 240 207 243 207 1 0 130 -143 286 -317z
m-3548 269 c-8 -18 -19 -32 -24 -32 -5 0 0 16 12 35 25 43 34 41 12 -3z m273
4 c-4 -9 -13 -16 -22 -16 -18 0 -19 5 -4 32 13 24 35 9 26 -16z m-153 -99
c-30 -54 -54 -76 -28 -26 24 48 46 80 51 76 2 -2 -8 -25 -23 -50z m-160 28
c-4 -8 -11 -15 -16 -15 -6 0 -5 6 2 15 7 8 14 15 16 15 2 0 1 -7 -2 -15z m196
-31 c0 -8 -5 -12 -10 -9 -6 4 -8 11 -5 16 9 14 15 11 15 -7z m-235 -24 c3 -5
1 -10 -4 -10 -6 0 -11 5 -11 10 0 6 2 10 4 10 3 0 8 -4 11 -10z m59 -44 c-10
-20 -22 -36 -26 -36 -5 0 2 18 14 39 28 49 35 47 12 -3z m178 12 c-7 -7 -12
-8 -12 -2 0 14 12 26 19 19 2 -3 -1 -11 -7 -17z m-9 -31 c22 -12 25 -15 8 -11
-16 4 -21 3 -17 -5 4 -6 2 -11 -4 -11 -6 0 -8 -4 -5 -10 3 -5 1 -10 -4 -10
-14 0 -14 6 -1 30 7 13 6 19 -5 23 -9 4 -12 1 -9 -7 3 -8 0 -17 -7 -22 -9 -5
-11 -2 -6 9 3 8 0 18 -8 20 -8 4 -25 -14 -44 -44 -17 -28 -31 -53 -31 -56 0
-3 -10 -21 -21 -40 -33 -53 -34 -31 -1 29 59 106 75 129 87 124 8 -3 17 3 21
12 6 15 8 15 11 1 2 -9 18 -23 36 -32z m-11 -61 c7 4 8 3 4 -4 -5 -9 -13 -9
-27 -2 -11 6 -23 9 -27 6 -4 -2 -8 6 -8 18 l-2 23 24 -24 c13 -13 29 -21 36
-17z m-79 -27 c3 -12 3 -18 0 -15 -4 3 -12 1 -20 -5 -16 -14 -17 -5 -3 22 13
24 16 24 23 -2z m40 -6 c-4 -10 -9 -11 -19 -2 -18 15 -18 15 5 15 11 0 17 -5
14 -13z m-255 -5 c-2 -6 -10 -14 -16 -16 -7 -2 -10 2 -6 12 7 18 28 22 22 4z
m182 -42 c0 -2 -7 -9 -15 -16 -13 -11 -14 -10 -9 4 5 14 24 23 24 12z m-232
-42 c-11 -24 -38 -34 -38 -14 0 20 24 48 36 43 10 -4 10 -10 2 -29z m260 -27
c2 -12 -3 -17 -17 -17 -12 0 -21 6 -21 13 0 31 32 34 38 4z m-290 -27 c3 -7 0
-10 -7 -6 -18 12 -34 -4 -20 -20 7 -9 8 -14 1 -14 -19 0 -23 18 -10 40 14 22
29 22 36 0z m270 -22 c-5 -15 -48 -24 -48 -10 0 14 12 22 33 22 10 0 17 -5 15
-12z m-304 -36 c2 -4 -3 -17 -12 -30 -23 -29 -50 -15 -33 17 12 21 35 28 45
13z m266 -22 c-12 -22 -30 -18 -30 6 0 8 9 14 20 14 18 0 19 -3 10 -20z m-26
-29 c7 -10 -3 -41 -13 -41 -3 0 -12 4 -20 9 -12 8 -12 12 -2 25 15 18 27 20
35 7z m-392 -33 c-7 -7 -12 -8 -12 -2 0 14 12 26 19 19 2 -3 -1 -11 -7 -17z
m38 2 c0 -5 -5 -10 -11 -10 -5 0 -7 5 -4 10 3 6 8 10 11 10 2 0 4 -4 4 -10z
m270 -10 c0 -5 -4 -10 -10 -10 -5 0 -10 5 -10 10 0 6 5 10 10 10 6 0 10 -4 10
-10z m54 -9 c3 -5 -2 -12 -11 -15 -15 -6 -15 -8 -3 -16 13 -8 13 -10 -1 -10
-23 0 -30 10 -18 31 10 20 24 24 33 10z m-316 -77 c-7 -15 -20 -30 -28 -32
-11 -4 -11 -2 2 11 9 10 20 26 23 38 4 11 9 18 12 16 3 -3 -1 -18 -9 -33z
m292 19 c0 -5 -5 -15 -10 -23 -7 -11 -10 -11 -10 -2 0 7 -4 10 -10 7 -5 -3
-10 1 -10 9 0 9 9 16 20 16 11 0 20 -3 20 -7z m-382 -72 c-13 -22 -26 -41 -30
-41 -4 0 5 20 19 45 34 55 43 52 11 -4z m345 3 c-23 -16 -41 -1 -23 21 10 12
16 13 26 4 12 -10 11 -14 -3 -25z m-68 16 c3 -5 1 -10 -4 -10 -6 0 -11 5 -11
10 0 6 2 10 4 10 3 0 8 -4 11 -10z m-35 -19 c0 -11 -29 -35 -35 -29 -10 9 7
38 21 38 8 0 14 -4 14 -9z m90 -31 c0 -12 -35 -31 -43 -24 -3 3 -3 12 0 20 6
16 43 19 43 4z m-360 -24 c0 -3 -4 -8 -10 -11 -5 -3 -10 -1 -10 4 0 6 5 11 10
11 6 0 10 -2 10 -4z m330 -30 c0 -8 -4 -17 -9 -20 -15 -10 -40 5 -34 20 7 18
43 18 43 0z m-130 -51 c0 -17 -27 -32 -37 -21 -4 3 2 13 13 21 24 18 24 18 24
0z m103 8 c4 -3 -5 -12 -20 -20 -30 -16 -41 -10 -23 12 13 16 32 20 43 8z
m-133 -103 c0 -5 -4 -10 -10 -10 -5 0 -10 5 -10 10 0 6 5 10 10 10 6 0 10 -4
10 -10z m-46 -34 c-6 -15 -24 -23 -24 -11 0 8 24 34 28 30 1 -1 0 -10 -4 -19z
m-133 -9 c-10 -9 -11 -8 -5 6 3 10 9 15 12 12 3 -3 0 -11 -7 -18z m4862 -204
c4 -4 -5 -20 -20 -37 -18 -20 -20 -24 -5 -12 18 16 22 16 22 4 0 -8 -26 -40
-59 -71 -32 -31 -61 -68 -65 -82 -7 -25 -41 -35 -62 -17 -5 5 -43 15 -84 22
-66 11 -122 29 -95 30 6 0 3 5 -5 11 -11 7 -2 9 33 6 26 -2 47 -1 47 3 0 3 16
4 36 2 26 -3 35 -1 30 7 -4 6 -15 11 -24 11 -9 0 -24 5 -32 11 -13 9 -12 10 2
5 11 -3 28 5 44 21 24 24 28 25 39 10 11 -15 14 -15 34 6 11 13 18 27 14 31
-5 5 2 6 13 2 15 -5 24 -2 28 10 5 12 10 14 19 5 14 -11 67 6 67 22 0 9 14 9
23 0z m-171 -65 c-6 -6 -15 -8 -19 -4 -4 4 -1 11 7 16 19 12 27 3 12 -12z
m-412 -68 c0 -5 -4 -10 -10 -10 -5 0 -10 5 -10 10 0 6 5 10 10 10 6 0 10 -4
10 -10z m75 -2 c11 -4 41 -9 68 -13 26 -3 47 -10 47 -16 0 -13 -34 -11 -48 3
-9 9 -12 9 -12 0 0 -8 -7 -9 -25 -2 -14 5 -25 6 -25 2 0 -4 -7 1 -14 11 -9 11
-17 14 -20 8 -4 -6 -13 -8 -21 -5 -8 4 -13 9 -10 13 5 8 29 8 60 -1z m1135
-253 c24 -29 5 -24 -25 7 -21 22 -24 28 -9 20 11 -6 27 -18 34 -27z m-505
-145 c10 -11 16 -20 13 -20 -3 0 -13 9 -23 20 -10 11 -16 20 -13 20 3 0 13 -9
23 -20z m1231 -28 c-6 -5 -36 23 -36 34 0 4 9 -1 20 -11 11 -10 18 -20 16 -23z
m-1166 -69 c0 -6 5 -13 11 -15 5 -2 11 -12 13 -21 1 -10 9 -23 17 -29 11 -8
10 -9 -5 -4 -14 5 -17 2 -12 -10 10 -27 -18 -10 -32 19 -15 31 -54 36 -87 13
-24 -16 -85 -26 -85 -14 0 5 7 11 15 14 23 9 18 23 -10 30 -14 3 -25 10 -25
15 0 13 27 11 36 -2 3 -6 15 -9 25 -6 11 3 19 2 19 -3 0 -4 15 -6 33 -4 17 1
43 3 57 4 21 1 23 2 10 13 -9 7 -27 28 -40 47 l-25 35 42 -35 c24 -19 43 -40
43 -47z m120 -25 c44 -3 49 -18 5 -18 -39 0 -75 15 -75 31 0 6 6 6 19 0 10 -6
33 -12 51 -13z m-196 -82 c9 3 16 10 16 16 0 13 43 6 47 -9 3 -8 -4 -10 -21
-7 -14 2 -26 0 -26 -5 0 -13 86 -51 115 -51 32 0 56 -10 49 -21 -9 -16 -68
-10 -109 11 -22 11 -49 20 -61 20 -36 0 -54 11 -54 31 0 10 -4 19 -10 19 -5 0
-10 5 -10 10 0 6 11 4 24 -5 13 -8 31 -13 40 -9z m-299 -56 c16 -6 35 -8 43
-5 15 5 82 -15 82 -25 -1 -29 -99 -41 -121 -14 -6 8 -8 14 -3 14 19 1 -42 29
-63 30 -12 0 -25 5 -28 11 -8 12 46 6 90 -11z m-3904 -17 c13 -16 12 -17 -3
-4 -10 7 -18 15 -18 17 0 8 8 3 21 -13z m1663 -4 c27 -21 33 -48 16 -65 -5 -5
-6 -15 -1 -22 7 -11 11 -11 24 2 14 14 16 14 29 -1 11 -15 11 -16 -5 -10 -13
5 -28 -4 -53 -29 -19 -20 -37 -34 -41 -31 -3 4 -14 2 -23 -3 -13 -7 -21 -5
-30 5 -10 12 -10 15 0 15 7 0 10 8 7 20 -3 13 1 21 15 26 14 4 17 9 9 14 -24
14 11 72 38 63 13 -5 14 -3 4 7 -11 11 -17 10 -37 -9 -22 -21 -25 -21 -34 -6
-8 15 -10 15 -15 -5 -4 -16 -2 -20 8 -16 8 3 17 1 20 -4 4 -6 1 -10 -5 -10 -7
0 -10 -7 -6 -15 3 -8 1 -15 -4 -15 -6 0 -10 -8 -10 -17 0 -36 -43 -74 -87 -78
-49 -5 -60 6 -39 37 18 26 21 17 5 -15 -8 -17 -4 -15 18 8 16 17 28 33 26 38
-2 4 2 7 10 7 8 0 17 8 20 19 3 12 -1 18 -12 17 -10 -1 -17 8 -19 24 -4 21 -2
23 13 10 14 -12 18 -12 26 1 5 8 9 10 9 4 0 -5 7 1 16 13 13 19 18 21 32 10
12 -10 14 -10 8 0 -21 34 28 43 68 11z m40 13 c3 -5 -1 -9 -9 -9 -8 0 -12 4
-9 9 3 4 7 8 9 8 2 0 6 -4 9 -8z m26 -16 c0 -2 -8 -10 -17 -17 -16 -13 -17
-12 -4 4 13 16 21 21 21 13z m2715 -6 c3 -5 2 -10 -4 -10 -5 0 -13 5 -16 10
-3 6 -2 10 4 10 5 0 13 -4 16 -10z m-342 -15 c-3 -16 -17 -16 -37 -2 -18 13
-17 14 10 13 16 -1 28 -5 27 -11z m402 -5 c3 -5 2 -10 -4 -10 -5 0 -13 5 -16
10 -3 6 -2 10 4 10 5 0 13 -4 16 -10z m950 -10 c3 -5 1 -10 -4 -10 -6 0 -11 5
-11 10 0 6 2 10 4 10 3 0 8 -4 11 -10z m-1211 -36 c9 -3 16 -10 16 -15 0 -14
-26 -10 -40 6 -13 16 -3 20 24 9z m-344 -84 c0 -5 -7 -10 -15 -10 -8 0 -15 5
-15 10 0 6 7 10 15 10 8 0 15 -4 15 -10z m426 -56 c13 -3 24 -10 24 -15 0 -5
-6 -7 -12 -5 -7 3 -25 7 -40 10 -16 4 -28 11 -28 17 0 6 7 8 16 5 9 -3 27 -9
40 -12z m-3576 -233 c445 -220 493 -245 498 -259 2 -6 -215 98 -482 231 -267
133 -486 245 -486 249 0 10 68 -22 470 -221z m3120 184 c-14 -17 -30 -20 -30
-6 0 5 8 12 18 14 9 3 19 5 21 6 2 0 -2 -6 -9 -14z m809 -11 l26 -14 -30 0
c-17 0 -37 6 -44 13 -11 10 -13 10 -7 0 4 -7 2 -13 -3 -13 -6 0 -11 5 -11 11
0 6 -9 9 -19 6 -12 -3 -22 1 -25 10 -5 12 2 13 41 7 25 -4 58 -13 72 -20z
m-889 -8 c0 -2 -7 -7 -16 -10 -8 -3 -12 -2 -9 4 6 10 25 14 25 6z m-55 -56 c3
-5 1 -10 -4 -10 -6 0 -11 5 -11 10 0 6 2 10 4 10 3 0 8 -4 11 -10z m-50 -40
c-3 -5 -13 -10 -21 -10 -8 0 -14 5 -14 10 0 6 9 10 21 10 11 0 17 -4 14 -10z
m-68 -55 l2 -30 -20 24 c-24 29 -24 44 -2 39 11 -2 18 -14 20 -33z m899 -62
c-10 -10 -44 9 -49 27 -8 31 6 33 31 5 13 -15 21 -29 18 -32z m29 -33 c16 -18
16 -20 2 -20 -9 0 -21 9 -27 20 -6 11 -7 20 -2 20 5 0 17 -9 27 -20z m-1015
-110 c-21 -14 -27 -12 -34 7 -9 23 16 36 34 17 13 -13 13 -16 0 -24z m-1780 0
c0 -5 -4 -10 -10 -10 -5 0 -10 5 -10 10 0 6 5 10 10 10 6 0 10 -4 10 -10z"/>
<path d="M1185 3750 c-3 -5 -1 -10 4 -10 6 0 11 5 11 10 0 6 -2 10 -4 10 -3 0
-8 -4 -11 -10z"/>
<path d="M1012 3418 c2 -6 10 -14 16 -16 7 -2 10 2 6 12 -7 18 -28 22 -22 4z"/>
<path d="M865 3220 c3 -5 11 -10 16 -10 6 0 7 5 4 10 -3 6 -11 10 -16 10 -6 0
-7 -4 -4 -10z"/>
<path d="M4106 3642 c-3 -5 6 -12 19 -15 14 -2 28 0 31 4 3 5 1 9 -5 9 -5 0
-16 3 -24 6 -8 3 -18 1 -21 -4z"/>
<path d="M4177 3619 c7 -7 15 -10 18 -7 3 3 -2 9 -12 12 -14 6 -15 5 -6 -5z"/>
<path d="M4220 3609 c0 -5 5 -7 10 -4 6 3 10 8 10 11 0 2 -4 4 -10 4 -5 0 -10
-5 -10 -11z"/>
<path d="M4835 3410 c3 -5 14 -10 23 -10 15 0 15 2 2 10 -20 13 -33 13 -25 0z"/>
<path d="M4391 3443 c0 -6 -4 -18 -7 -26 -4 -10 4 -16 25 -19 28 -4 31 -2 30
21 -1 17 -3 20 -6 9 -6 -26 -31 -22 -36 5 -2 12 -5 17 -6 10z"/>
<path d="M4454 3425 c-7 -18 14 -47 30 -42 6 2 12 14 12 27 1 21 0 22 -11 7
-14 -19 -26 -13 -18 9 3 8 2 14 -1 14 -4 0 -9 -7 -12 -15z"/>
<path d="M4510 3405 c0 -23 2 -26 15 -15 12 10 15 9 15 -4 0 -10 5 -14 10 -11
6 3 10 15 10 26 0 12 -5 17 -10 14 -6 -4 -17 -1 -25 5 -13 10 -15 8 -15 -15z"/>
<path d="M4578 3393 c5 -24 6 -25 12 -8 8 21 4 35 -9 35 -5 0 -6 -12 -3 -27z"/>
<path d="M4080 3248 c0 -5 23 -8 50 -8 28 0 50 4 50 9 0 4 -22 8 -50 7 -27 0
-50 -4 -50 -8z"/>
<path d="M4230 3250 c0 -13 30 -13 50 0 11 7 7 10 -17 10 -18 0 -33 -4 -33
-10z"/>
<path d="M4335 3250 c3 -5 12 -10 20 -10 8 0 17 5 20 10 4 6 -5 10 -20 10 -15
0 -24 -4 -20 -10z"/>
<path d="M3056 3045 c-22 -33 -73 -189 -80 -245 -4 -32 5 -13 34 70 22 63 42
125 44 137 3 12 9 31 16 42 15 29 6 26 -14 -4z"/>
<path d="M3400 2580 c0 -5 7 -7 15 -4 8 4 15 8 15 10 0 2 -7 4 -15 4 -8 0 -15
-4 -15 -10z"/>
<path d="M3316 2554 c-5 -14 -4 -15 9 -4 17 14 19 20 6 20 -5 0 -12 -7 -15
-16z"/>
<path d="M3183 2538 c-23 -30 -24 -41 -2 -21 12 12 20 25 17 28 -3 3 -10 0
-15 -7z"/>
<path d="M3825 2420 c-3 -6 1 -7 9 -4 18 7 21 14 7 14 -6 0 -13 -4 -16 -10z"/>
<path d="M3090 2399 c0 -5 5 -7 10 -4 6 3 10 8 10 11 0 2 -4 4 -10 4 -5 0 -10
-5 -10 -11z"/>
<path d="M3576 2371 c-3 -5 1 -11 9 -14 9 -4 12 -1 8 9 -6 16 -10 17 -17 5z"/>
<path d="M2820 2320 c0 -5 5 -10 11 -10 5 0 7 5 4 10 -3 6 -8 10 -11 10 -2 0
-4 -4 -4 -10z"/>
<path d="M4015 2284 c-22 -20 -31 -31 -20 -25 29 16 82 61 70 61 -5 -1 -28
-17 -50 -36z"/>
<path d="M3624 2268 l-19 -23 23 19 c21 18 27 26 19 26 -2 0 -12 -10 -23 -22z"/>
<path d="M4034 2268 l-19 -21 30 18 30 18 -31 -32 c-31 -33 -31 -33 -65 -16
l-34 16 25 -20 c14 -11 30 -21 35 -21 19 1 78 57 71 68 -10 17 -20 15 -42 -10z"/>
<path d="M3525 2178 l-50 -53 53 50 c28 27 52 51 52 52 0 8 -9 -1 -55 -49z"/>
<path d="M5575 2145 c33 -28 105 -55 143 -55 24 0 25 1 7 20 -10 11 -14 20
-10 20 5 0 4 5 -3 12 -9 9 -16 7 -32 -7 -20 -18 -20 -18 -20 6 0 19 -2 21 -10
9 -8 -12 -10 -12 -10 5 -1 18 -2 18 -14 -3 -11 -20 -14 -21 -25 -9 -6 8 -22
17 -34 20 -19 5 -18 2 8 -18z"/>
<path d="M4132 2128 c-14 -14 -16 -28 -3 -28 5 0 11 9 14 20 6 23 5 24 -11 8z"/>
<path d="M4074 2085 c-10 -8 -14 -15 -8 -15 6 0 17 7 24 15 16 19 9 19 -16 0z"/>
<path d="M4145 2089 c-4 -6 -14 -8 -22 -5 -8 3 -11 1 -8 -4 8 -14 18 -13 41 5
10 8 14 15 7 15 -6 0 -15 -5 -18 -11z"/>
<path d="M5485 2083 c-16 -15 -16 -17 0 -26 19 -10 20 -10 29 21 9 26 -6 29
-29 5z"/>
<path d="M3419 2063 c-13 -16 -12 -17 4 -4 16 13 21 21 13 21 -2 0 -10 -8 -17
-17z"/>
<path d="M2937 2043 c-10 -9 -9 -23 2 -23 5 0 11 7 15 15 5 15 -5 20 -17 8z"/>
<path d="M5454 2018 c-24 -16 -25 -18 -7 -13 13 3 31 2 40 -4 10 -6 13 -11 7
-11 -7 0 -9 -11 -6 -27 l6 -28 7 30 c16 70 1 87 -47 53z"/>
<path d="M3374 2008 l-19 -23 23 19 c12 11 22 21 22 23 0 8 -8 2 -26 -19z"/>
<path d="M5949 2000 c0 -14 -2 -45 -4 -70 -4 -45 -4 -45 6 -10 6 19 15 43 21
54 7 14 6 23 -6 34 -15 15 -16 14 -17 -8z"/>
<path d="M2975 1990 c-3 -5 -2 -10 4 -10 5 0 13 5 16 10 3 6 2 10 -4 10 -5 0
-13 -4 -16 -10z"/>
<path d="M3017 1944 c-8 -8 1 -24 12 -24 4 0 8 7 8 15 0 16 -9 20 -20 9z"/>
<path d="M3853 1910 c-34 -21 -42 -35 -21 -42 17 -6 80 32 75 45 -6 18 -21 18
-54 -3z m37 -4 c0 -2 -7 -7 -16 -10 -8 -3 -12 -2 -9 4 6 10 25 14 25 6z"/>
<path d="M4234 1904 c-18 -14 -18 -15 4 -4 12 6 22 13 22 15 0 8 -5 6 -26 -11z"/>
<path d="M6034 1908 c-7 -12 -15 -58 -10 -58 6 0 66 57 66 63 0 12 -49 7 -56
-5z"/>
<path d="M3060 1885 c0 -8 4 -15 8 -15 5 0 9 7 9 15 0 8 -4 15 -9 15 -4 0 -8
-7 -8 -15z"/>
<path d="M4108 1868 c-16 -5 -29 -14 -29 -19 -1 -5 -2 -15 -3 -21 -3 -20 34
-56 70 -68 39 -13 46 -29 9 -22 -14 2 -25 0 -25 -5 0 -13 -49 -35 -61 -28 -5
4 -9 2 -9 -3 0 -16 -50 -32 -103 -33 l-52 -1 48 -13 c40 -11 54 -11 85 0 20 8
75 25 122 39 89 26 132 50 115 63 -5 5 -10 21 -10 37 0 16 -6 31 -14 34 -8 3
-11 1 -8 -4 3 -5 -1 -20 -10 -34 -8 -14 -12 -17 -9 -7 3 11 2 15 -4 12 -6 -3
-10 -18 -10 -33 -1 -23 -3 -25 -13 -12 -7 8 -29 23 -49 34 -47 24 -54 43 -27
73 13 12 21 23 18 22 -2 0 -16 -5 -31 -11z"/>
<path d="M4437 1873 c-14 -13 -6 -23 15 -20 28 5 36 27 11 27 -11 0 -23 -3
-26 -7z"/>
<path d="M4505 1870 c3 -6 14 -10 25 -10 10 0 21 -7 24 -16 5 -14 9 -13 36 3
16 9 30 21 30 26 0 5 -6 4 -14 -2 -8 -7 -17 -8 -20 -3 -3 5 -24 9 -46 10 -25
1 -39 -2 -35 -8z"/>
<path d="M2945 1850 c4 -6 11 -8 16 -5 14 9 11 15 -7 15 -8 0 -12 -5 -9 -10z"/>
<path d="M3100 1841 c0 -6 4 -12 8 -15 5 -3 9 1 9 9 0 8 -4 15 -9 15 -4 0 -8
-4 -8 -9z"/>
<path d="M2930 1820 c-9 -6 -10 -10 -3 -10 6 0 15 5 18 10 8 12 4 12 -15 0z"/>
<path d="M3147 1796 c-4 -10 -1 -13 8 -9 8 3 12 9 9 14 -7 12 -11 11 -17 -5z"/>
<path d="M3745 1793 c-41 -21 -66 -44 -59 -54 14 -23 104 2 104 28 0 7 -4 13
-10 13 -5 0 -7 7 -4 15 7 18 7 18 -31 -2z"/>
<path d="M3895 1778 c-104 -39 -124 -50 -170 -93 -46 -41 -38 -60 25 -60 27 0
39 -3 36 -11 -6 -17 68 -29 91 -15 16 9 15 11 -7 12 -14 1 -29 1 -34 0 -4 -1
-14 6 -21 15 -8 11 -20 15 -34 11 -11 -3 -21 -1 -21 4 0 5 -6 9 -14 9 -8 0
-18 5 -22 12 -5 7 -2 9 8 5 21 -7 59 20 52 37 -4 9 9 19 38 29 24 8 64 23 90
32 25 9 52 23 58 31 7 7 11 13 9 13 -2 -1 -40 -15 -84 -31z"/>
<path d="M4090 1766 c0 -2 8 -10 18 -17 15 -13 16 -12 3 4 -13 16 -21 21 -21
13z"/>
<path d="M3197 1753 c-10 -10 -8 -33 2 -33 6 0 9 9 8 20 -1 23 -1 22 -10 13z"/>
<path d="M5830 1741 c0 -5 9 -7 20 -4 11 3 20 7 20 9 0 2 -9 4 -20 4 -11 0
-20 -4 -20 -9z"/>
<path d="M3237 1703 c-4 -3 -7 -11 -7 -17 0 -6 5 -5 12 2 6 6 9 14 7 17 -3 3
-9 2 -12 -2z"/>
<path d="M5818 1683 c-18 -4 -55 -69 -46 -79 8 -8 43 10 46 24 1 8 -2 11 -8 7
-5 -3 -10 -2 -10 2 0 5 10 13 22 18 12 6 23 16 26 23 4 12 0 13 -30 5z"/>
<path d="M3276 1651 c-4 -7 -5 -15 -2 -18 9 -9 19 4 14 18 -4 11 -6 11 -12 0z"/>
<path d="M5650 1650 c0 -21 -1 -26 -16 -49 -13 -18 -13 -26 -3 -35 9 -8 10 -8
5 2 -4 6 -3 12 2 12 6 0 15 14 21 31 14 39 14 49 1 49 -5 0 -10 -4 -10 -10z"/>
<path d="M5586 1633 c-12 -13 -5 -20 19 -20 14 0 25 1 25 3 0 8 -38 23 -44 17z"/>
<path d="M5720 1625 c0 -9 6 -12 15 -9 8 4 15 10 15 15 0 5 -7 9 -15 9 -8 0
-15 -7 -15 -15z"/>
<path d="M3160 1609 c0 -5 5 -7 10 -4 6 3 10 8 10 11 0 2 -4 4 -10 4 -5 0 -10
-5 -10 -11z"/>
<path d="M3315 1601 c-3 -5 -1 -12 4 -15 5 -3 11 1 15 9 6 16 -9 21 -19 6z"/>
<path d="M5386 1603 c-12 -13 -5 -18 25 -20 34 -3 35 -1 3 15 -12 6 -24 8 -28
5z"/>
<path d="M2690 1560 c0 -5 5 -10 11 -10 5 0 7 5 4 10 -3 6 -8 10 -11 10 -2 0
-4 -4 -4 -10z"/>
<path d="M3356 1552 c-4 -7 -5 -12 -2 -12 2 0 11 -3 20 -6 9 -3 16 -1 16 6 0
6 -4 9 -9 6 -5 -4 -11 -1 -13 6 -3 9 -6 9 -12 0z"/>
<path d="M3400 1499 c0 -5 5 -7 10 -4 6 3 10 8 10 11 0 2 -4 4 -10 4 -5 0 -10
-5 -10 -11z"/>
<path d="M3455 1440 c-3 -5 -1 -10 4 -10 6 0 11 5 11 10 0 6 -2 10 -4 10 -3 0
-8 -4 -11 -10z"/>
<path d="M4459 1244 c-199 -181 -472 -444 -467 -450 3 -2 62 52 238 221 47 45
117 110 155 146 157 144 258 234 268 241 6 4 9 10 5 13 -3 3 -93 -74 -199
-171z"/>
<path d="M3507 1403 c-4 -3 -7 -11 -7 -17 0 -6 5 -5 12 2 6 6 9 14 7 17 -3 3
-9 2 -12 -2z"/>
<path d="M3535 1359 c-6 -8 -4 -10 5 -4 10 6 12 4 6 -11 -6 -15 -5 -17 5 -6 9
9 10 15 2 23 -8 8 -13 7 -18 -2z"/>
<path d="M3586 1295 c-3 -8 -1 -15 4 -15 6 0 10 7 10 15 0 8 -2 15 -4 15 -2 0
-6 -7 -10 -15z"/>
<path d="M3635 1249 c-4 -6 -5 -12 -2 -15 2 -3 7 2 10 11 7 17 1 20 -8 4z"/>
<path d="M3667 1193 c3 -7 9 -10 14 -7 14 8 11 21 -5 21 -8 0 -12 -6 -9 -14z"/>
<path d="M3796 1048 c3 -4 9 -8 15 -8 5 0 9 4 9 8 0 5 -7 9 -15 9 -8 0 -12 -4
-9 -9z"/>
<path d="M3850 999 c0 -5 5 -7 10 -4 6 3 10 8 10 11 0 2 -4 4 -10 4 -5 0 -10
-5 -10 -11z"/>
<path d="M3896 953 c-6 -14 -5 -15 5 -6 7 7 10 15 7 18 -3 3 -9 -2 -12 -12z"/>
<path d="M3930 904 c0 -8 5 -12 10 -9 6 3 10 10 10 16 0 5 -4 9 -10 9 -5 0
-10 -7 -10 -16z"/>
<path d="M3970 855 c0 -8 5 -15 10 -15 6 0 10 7 10 15 0 8 -4 15 -10 15 -5 0
-10 -7 -10 -15z"/>
<path d="M470 2289 c0 -5 5 -7 10 -4 6 3 10 8 10 11 0 2 -4 4 -10 4 -5 0 -10
-5 -10 -11z"/>
<path d="M4804 1558 l-19 -23 23 19 c12 11 22 21 22 23 0 8 -8 2 -26 -19z"/>
<path d="M4745 1510 c-3 -6 1 -7 9 -4 18 7 21 14 7 14 -6 0 -13 -4 -16 -10z"/>
<path d="M4740 841 c0 -5 7 -12 16 -15 24 -9 28 -7 14 9 -14 17 -30 20 -30 6z"/>
<path d="M2420 782 c0 -4 7 -18 16 -30 15 -22 15 -23 -9 -17 -14 4 -28 2 -31
-4 -4 -6 0 -11 8 -11 9 0 16 -4 16 -10 0 -15 17 -12 35 6 13 14 14 18 3 25 -7
5 -14 13 -14 19 -1 5 -2 15 -3 20 -1 12 -21 14 -21 2z"/>
<path d="M2285 688 c-16 -17 -22 -26 -12 -18 9 7 20 10 24 7 9 -9 33 12 33 29
0 21 -12 16 -45 -18z"/>
<path d="M2385 699 c-11 -16 -1 -19 13 -3 7 8 8 14 3 14 -5 0 -13 -5 -16 -11z"/>
<path d="M2877 4323 c-13 -12 -7 -93 9 -131 16 -39 56 -87 87 -103 12 -7 16
-6 15 2 -2 6 3 14 11 17 8 3 11 0 7 -7 -5 -7 -1 -9 8 -5 12 5 13 10 5 26 -18
34 -3 43 17 10 16 -28 22 -32 48 -26 16 3 45 21 64 40 19 18 43 36 53 39 11 4
19 11 19 16 0 14 -17 11 -34 -6 -20 -20 -29 -19 -17 3 5 10 21 24 35 32 14 7
26 18 26 23 0 5 -7 4 -15 -3 -12 -10 -15 -10 -15 3 0 9 8 21 19 26 10 6 21 20
24 31 6 23 -11 28 -19 5 -4 -8 -12 -15 -20 -15 -8 0 -11 6 -8 15 4 10 0 15
-11 15 -12 0 -16 -7 -12 -27 2 -16 2 -22 0 -15 -8 22 -25 12 -21 -12 4 -19 1
-23 -11 -18 -9 3 -13 2 -9 -3 4 -4 -4 -14 -18 -22 -33 -16 -35 -16 -28 2 5 11
2 13 -10 9 -9 -3 -16 -12 -16 -19 0 -8 -5 -17 -12 -21 -8 -5 -9 -2 -5 10 6 14
3 16 -13 11 -13 -4 -20 -2 -20 7 0 8 -15 19 -32 26 -30 12 -32 14 -15 26 9 7
17 19 17 27 0 12 2 12 9 0 7 -10 13 -11 31 -1 15 8 20 8 16 1 -4 -6 0 -11 8
-11 9 0 16 6 16 14 0 10 -21 14 -88 15 -49 0 -92 -2 -95 -6z m93 -103 c-6 -11
-12 -20 -14 -20 -3 0 -1 23 3 38 1 1 6 2 11 2 7 0 7 -6 0 -20z m185 2 c0 -9
-4 -23 -9 -30 -4 -6 -4 -17 0 -24 4 -7 3 -8 -5 -4 -6 4 -18 2 -26 -4 -8 -7
-15 -9 -15 -4 0 5 -5 2 -10 -6 -6 -10 -10 -11 -10 -3 0 7 12 20 26 30 14 9 30
27 35 40 10 27 16 30 14 5z m-30 -23 c-10 -15 -25 -10 -19 6 4 8 10 12 15 9 5
-3 7 -10 4 -15z m-95 -9 c0 -13 -5 -18 -15 -14 -16 7 -19 17 -8 27 12 13 23 7
23 -13z m-42 -40 c-7 -11 -17 -20 -21 -20 -5 0 -6 -7 -3 -16 3 -8 2 -12 -4 -9
-15 10 -12 22 12 45 27 25 32 25 16 0z m92 -24 c0 -3 -4 -8 -10 -11 -5 -3 -10
-1 -10 4 0 6 5 11 10 11 6 0 10 -2 10 -4z"/>
<path d="M3265 4306 c-24 -36 -37 -88 -24 -101 7 -7 8 -5 4 8 -4 10 -2 17 5
17 6 0 8 5 5 11 -7 11 25 40 36 33 12 -7 29 23 23 40 -9 23 -31 20 -49 -8z
m35 6 c0 -5 -9 -17 -20 -27 -23 -21 -26 -14 -8 15 13 20 28 27 28 12z"/>
<path d="M3333 4276 c1 -33 8 -41 13 -13 1 7 3 18 5 26 2 7 -1 15 -7 18 -8 2
-11 -9 -11 -31z"/>
<path d="M3279 4253 c-1 -5 -1 -12 0 -17 1 -5 -4 -13 -11 -17 -7 -5 -8 -9 -2
-9 11 0 54 37 54 47 0 4 -5 2 -12 -5 -15 -15 -32 -16 -23 -2 3 6 4 10 1 10 -3
0 -7 -3 -7 -7z"/>
<path d="M3281 4184 c0 -11 3 -14 6 -6 3 7 2 16 -1 19 -3 4 -6 -2 -5 -13z"/>
<path d="M3230 4149 c0 -5 5 -7 10 -4 6 3 10 8 10 11 0 2 -4 4 -10 4 -5 0 -10
-5 -10 -11z"/>
<path d="M3199 4123 c-13 -16 -12 -17 4 -4 16 13 21 21 13 21 -2 0 -10 -8 -17
-17z"/>
<path d="M3085 4089 c-4 -6 -4 -13 -1 -16 3 -4 6 -1 6 5 0 6 8 13 18 15 15 4
15 5 0 6 -9 0 -20 -4 -23 -10z"/>
<path d="M3023 4075 c0 -8 4 -12 9 -9 4 3 8 9 8 15 0 5 -4 9 -8 9 -5 0 -9 -7
-9 -15z"/>
<path d="M3130 4080 c0 -5 5 -10 11 -10 5 0 7 5 4 10 -3 6 -8 10 -11 10 -2 0
-4 -4 -4 -10z"/>
<path d="M3525 4040 c-3 -6 1 -7 9 -4 18 7 21 14 7 14 -6 0 -13 -4 -16 -10z"/>
<path d="M51 3956 c-8 -9 -11 -19 -7 -23 9 -9 29 13 24 27 -2 8 -8 7 -17 -4z"/>
<path d="M94 3932 c-35 -5 -38 -68 -5 -112 14 -19 32 -46 39 -58 12 -21 11
-23 -5 -18 -16 4 -63 -23 -63 -37 0 -15 36 -15 52 0 19 17 20 17 33 0 13 -19
25 -22 25 -8 0 5 14 32 31 60 42 68 35 98 -34 143 -29 19 -61 32 -73 30z m6
-216 c0 -3 -4 -8 -10 -11 -5 -3 -10 -1 -10 4 0 6 5 11 10 11 6 0 10 -2 10 -4z"/>
<path d="M6 3884 c-4 -9 -5 -17 -4 -18 2 -1 16 -12 32 -26 l28 -25 -22 43
c-12 23 -23 42 -25 42 -2 0 -6 -7 -9 -16z"/>
<path d="M425 3710 c-3 -5 -2 -10 4 -10 6 0 8 -6 5 -14 -4 -11 0 -13 15 -9 24
6 26 14 9 31 -15 15 -25 15 -33 2z"/>
<path d="M355 3666 c-12 -19 -14 -30 -7 -39 10 -11 12 -18 12 -33 0 -3 7 1 15
10 19 19 19 24 -2 22 -20 -1 -20 34 0 46 6 4 9 10 5 13 -4 4 -14 -5 -23 -19z"/>
<path d="M476 3657 l-29 -24 37 2 c46 1 54 -9 24 -30 -21 -14 -24 -14 -35 2
-9 11 -13 12 -13 4 0 -8 -6 -11 -15 -7 -19 7 -47 -3 -39 -15 2 -5 0 -17 -5
-28 -9 -16 -4 -23 29 -46 37 -26 39 -29 25 -45 -17 -18 -19 -30 -7 -30 12 0
33 50 26 61 -3 5 0 8 6 7 6 -2 26 25 46 60 19 34 30 62 24 62 -6 0 -8 5 -5 11
6 9 -20 38 -35 39 -3 0 -18 -11 -34 -23z m-41 -67 c3 -5 1 -10 -4 -10 -6 0
-11 5 -11 10 0 6 2 10 4 10 3 0 8 -4 11 -10z"/>
<path d="M1540 3548 l-30 -53 21 -18 c29 -24 39 -19 72 38 l29 49 -24 18 c-13
9 -26 18 -30 18 -4 0 -21 -24 -38 -52z m40 -6 c0 -13 -12 -22 -22 -16 -10 6
-1 24 13 24 5 0 9 -4 9 -8z"/>
<path d="M1606 3479 c-25 -45 -46 -84 -46 -88 0 -4 23 -18 51 -31 57 -27 48
-33 104 67 19 34 35 66 35 71 0 8 -83 62 -96 62 -1 0 -23 -36 -48 -81z m100 6
c-3 -20 -16 -31 -16 -13 0 13 8 28 16 28 1 0 1 -7 0 -15z"/>
<path d="M4 3487 c0 -52 2 -60 11 -43 6 12 20 35 30 51 10 17 15 27 10 23 -4
-5 -14 1 -22 12 -23 32 -29 24 -29 -43z"/>
<path d="M275 3480 c3 -5 8 -10 11 -10 2 0 4 5 4 10 0 6 -5 10 -11 10 -5 0 -7
-4 -4 -10z"/>
<path d="M1748 3441 c-31 -53 -30 -55 31 -86 27 -14 38 -15 56 -5 19 10 30 8
73 -14 28 -14 55 -26 60 -26 11 0 44 59 38 69 -6 9 -210 111 -223 111 -4 0
-20 -22 -35 -49z m84 -21 c-3 -28 -9 -36 -19 -26 -4 3 -1 12 5 18 15 15 16 32
2 23 -5 -3 -10 -1 -10 5 0 7 6 10 13 7 6 -2 11 -15 9 -27z"/>
<path d="M647 3466 c-4 -10 -1 -13 9 -9 7 3 14 9 14 14 0 14 -17 10 -23 -5z"/>
<path d="M1470 3423 c-35 -55 -37 -69 -11 -83 31 -16 38 -13 66 36 29 49 28
66 -4 84 -19 9 -24 5 -51 -37z m33 -10 c3 -5 -1 -14 -8 -20 -11 -10 -13 -9
-12 7 1 20 12 26 20 13z"/>
<path d="M688 3406 c-10 -7 -15 -16 -11 -20 4 -4 0 -4 -8 -1 -11 4 -18 -1 -23
-17 -9 -34 -7 -68 3 -68 5 0 11 10 14 23 4 22 4 22 15 -3 10 -23 11 -21 11 21
1 25 6 50 13 57 17 17 6 23 -14 8z"/>
<path d="M249 3408 c0 -2 -2 -15 -3 -29 -1 -20 2 -25 16 -21 25 6 32 20 18 37
-11 13 -28 20 -31 13z"/>
<path d="M162 3345 c-15 -32 6 -80 26 -59 17 18 15 35 -3 28 -19 -8 -19 6 1
34 12 18 13 22 1 22 -8 0 -19 -11 -25 -25z"/>
<path d="M295 3346 l-30 -25 43 3 c23 2 42 1 42 -1 0 -7 -44 -42 -52 -43 -3 0
-9 8 -11 18 -4 16 -5 16 -6 -1 -1 -15 -4 -16 -23 -6 -19 10 -20 9 -14 -7 6
-15 5 -17 -5 -6 -20 19 -24 15 -24 -23 0 -29 6 -39 33 -55 28 -17 31 -23 22
-41 -6 -11 -9 -25 -7 -32 2 -7 12 3 21 22 15 28 16 35 4 43 -10 8 -9 9 4 4 13
-4 25 9 50 52 35 62 38 90 12 109 -23 17 -24 17 -59 -11z"/>
<path d="M1961 3241 c-39 -71 -71 -133 -71 -138 0 -11 98 -59 105 -51 3 2 36
62 75 133 53 96 67 131 58 137 -13 9 -90 48 -94 48 -1 0 -34 -58 -73 -129z
m134 49 c-5 -8 -11 -8 -17 -2 -6 6 -7 16 -3 22 5 8 11 8 17 2 6 -6 7 -16 3
-22z"/>
<path d="M1532 3348 c-14 -18 -42 -75 -42 -86 0 -9 98 -58 104 -51 12 14 58
100 55 103 -9 8 -89 46 -97 46 -5 0 -14 -6 -20 -12z m-2 -72 c0 -3 -4 -8 -10
-11 -5 -3 -10 -1 -10 4 0 6 5 11 10 11 6 0 10 -2 10 -4z"/>
<path d="M1676 3314 c-14 -25 -23 -50 -20 -55 7 -11 79 -49 93 -49 6 0 22 23
37 51 28 57 28 57 -33 85 -46 20 -48 19 -77 -32z m99 6 c3 -5 2 -10 -4 -10 -5
0 -13 5 -16 10 -3 6 -2 10 4 10 5 0 13 -4 16 -10z m-85 -60 c0 -5 -2 -10 -4
-10 -3 0 -8 5 -11 10 -3 6 -1 10 4 10 6 0 11 -4 11 -10z m45 -20 c3 -5 2 -10
-4 -10 -5 0 -13 5 -16 10 -3 6 -2 10 4 10 5 0 13 -4 16 -10z"/>
<path d="M1386 3278 l-28 -52 22 -18 c12 -10 26 -18 31 -18 8 0 69 98 69 111
0 6 -46 29 -58 29 -4 0 -20 -24 -36 -52z m34 -8 c0 -5 -5 -10 -11 -10 -5 0 -7
5 -4 10 3 6 8 10 11 10 2 0 4 -4 4 -10z"/>
<path d="M1842 3318 c-14 -18 -42 -75 -42 -86 0 -9 81 -52 97 -52 5 0 20 22
35 49 29 54 29 55 -29 85 -38 19 -47 20 -61 4z"/>
<path d="M2195 3219 c-25 -49 -25 -51 -8 -65 29 -22 46 -12 73 39 25 47 25 48
6 63 -32 23 -44 17 -71 -37z m35 -9 c0 -5 -5 -10 -11 -10 -5 0 -7 5 -4 10 3 6
8 10 11 10 2 0 4 -4 4 -10z"/>
<path d="M1442 3187 c-16 -28 -28 -55 -25 -60 9 -15 85 -48 99 -43 13 5 54 77
54 95 0 6 -22 22 -49 36 l-49 25 -30 -53z m28 -41 c0 -2 -7 -6 -15 -10 -8 -3
-15 -1 -15 4 0 6 7 10 15 10 8 0 15 -2 15 -4z"/>
<path d="M555 3183 c-11 -26 -22 -51 -23 -55 -2 -4 3 -5 12 -2 9 3 16 11 16
17 0 6 12 24 27 39 23 24 25 30 13 38 -22 14 -23 14 -45 -37z"/>
<path d="M1622 3218 c-14 -18 -42 -75 -42 -86 0 -9 98 -58 104 -51 12 14 58
100 55 103 -9 8 -89 46 -97 46 -5 0 -14 -6 -20 -12z m88 -34 c0 -2 -7 -4 -15
-4 -8 0 -15 4 -15 10 0 5 7 7 15 4 8 -4 15 -8 15 -10z m-40 -68 c0 -11 -19
-15 -25 -6 -3 5 1 10 9 10 9 0 16 -2 16 -4z"/>
<path d="M1314 3144 c-28 -54 -29 -55 -10 -70 11 -8 25 -14 32 -14 13 0 64 84
64 105 0 9 -39 35 -54 35 -2 0 -16 -25 -32 -56z"/>
<path d="M1748 3151 c-20 -37 -24 -52 -15 -59 27 -21 80 -43 92 -38 14 5 55
77 55 95 0 12 -72 51 -92 51 -7 0 -25 -22 -40 -49z m72 -73 c0 -13 -23 -5 -28
10 -2 7 2 10 12 6 9 -3 16 -11 16 -16z"/>
<path d="M81 3167 c2 -1 13 -9 24 -17 19 -14 19 -14 6 3 -7 9 -18 17 -24 17
-6 0 -8 -1 -6 -3z"/>
<path d="M2058 3121 c-20 -37 -24 -52 -15 -59 28 -22 100 -53 113 -48 13 5 54
76 54 95 0 9 -100 61 -117 61 -4 0 -20 -22 -35 -49z m32 -11 c0 -5 -2 -10 -4
-10 -3 0 -8 5 -11 10 -3 6 -1 10 4 10 6 0 11 -4 11 -10z m60 -10 c-6 -11 -13
-20 -16 -20 -2 0 0 9 6 20 6 11 13 20 16 20 2 0 0 -9 -6 -20z"/>
<path d="M1392 3097 c-14 -17 -54 -98 -50 -102 9 -8 89 -45 97 -45 11 0 61 80
61 97 0 5 -22 22 -49 36 -38 21 -51 24 -59 14z m73 -47 c3 -6 -1 -7 -9 -4 -18
7 -21 14 -7 14 6 0 13 -4 16 -10z m-75 -46 c0 -8 -19 -13 -24 -6 -3 5 1 9 9 9
8 0 15 -2 15 -3z m40 -24 c0 -5 -2 -10 -4 -10 -3 0 -8 5 -11 10 -3 6 -1 10 4
10 6 0 11 -4 11 -10z"/>
<path d="M1532 3055 l-30 -55 42 -25 c24 -14 48 -25 54 -25 15 0 73 91 66 102
-3 5 -27 19 -54 33 l-49 25 -29 -55z m58 -31 c0 -14 -3 -14 -15 -4 -8 7 -15
14 -15 16 0 2 7 4 15 4 8 0 15 -7 15 -16z"/>
<path d="M35 3080 c-3 -5 -2 -10 4 -10 6 0 8 -7 5 -15 -8 -20 -2 -19 25 4 18
16 19 20 5 25 -22 8 -32 8 -39 -4z"/>
<path d="M85 3037 c-23 -23 -25 -27 -8 -18 12 6 26 11 30 10 25 -4 53 2 48 11
-17 27 -41 26 -70 -3z"/>
<path d="M1676 3019 c-16 -28 -26 -52 -24 -53 9 -9 89 -46 97 -46 11 0 61 80
61 96 0 10 -82 54 -99 54 -4 0 -20 -23 -35 -51z m14 -39 c0 -5 -4 -10 -10 -10
-5 0 -10 5 -10 10 0 6 5 10 10 10 6 0 10 -4 10 -10z m60 -24 c0 -11 -19 -15
-25 -6 -3 5 1 10 9 10 9 0 16 -2 16 -4z"/>
<path d="M1862 3058 c-14 -19 -42 -76 -42 -87 0 -6 22 -22 49 -36 l50 -25 27
49 c14 28 27 53 27 58 0 9 -73 53 -89 53 -6 0 -16 -6 -22 -12z"/>
<path d="M1238 3011 c-16 -27 -28 -53 -28 -58 0 -8 42 -33 55 -33 5 0 65 102
65 111 0 6 -46 29 -58 29 -4 0 -19 -22 -34 -49z m23 -24 c-10 -9 -11 -8 -5 6
3 10 9 15 12 12 3 -3 0 -11 -7 -18z"/>
<path d="M170 3020 c0 -13 -9 -24 -26 -30 -17 -7 -24 -15 -20 -25 3 -8 1 -15
-3 -15 -5 0 -11 4 -13 9 -1 5 -16 13 -33 17 -27 7 -29 6 -16 -9 8 -10 9 -17 3
-17 -6 0 -14 5 -17 10 -10 16 -25 12 -19 -5 4 -8 1 -21 -5 -29 -13 -16 -5 -24
51 -49 45 -21 54 -21 38 -2 -11 13 -10 14 1 10 10 -4 23 11 39 45 14 27 28 50
33 50 11 0 9 48 -3 55 -5 3 -10 -3 -10 -15z"/>
<path d="M2056 2966 c-32 -54 -32 -61 -4 -80 26 -19 41 -9 69 45 24 49 24 53
-6 67 -34 16 -30 18 -59 -32z m34 -16 c0 -5 -4 -10 -10 -10 -5 0 -10 5 -10 10
0 6 5 10 10 10 6 0 10 -4 10 -10z"/>
<path d="M1296 2924 c-14 -26 -26 -50 -26 -55 0 -5 22 -20 50 -34 l49 -25 16
25 c8 14 22 36 30 50 8 13 15 28 15 33 0 8 -83 52 -99 52 -5 0 -21 -21 -35
-46z m99 -4 c3 -5 2 -10 -4 -10 -5 0 -13 5 -16 10 -3 6 -2 10 4 10 5 0 13 -4
16 -10z m-80 -40 c3 -5 -1 -10 -9 -10 -9 0 -16 5 -16 10 0 6 4 10 9 10 6 0 13
-4 16 -10z m40 -30 c3 -5 1 -10 -4 -10 -6 0 -11 5 -11 10 0 6 2 10 4 10 3 0 8
-4 11 -10z"/>
<path d="M1457 2919 c-16 -28 -27 -52 -25 -53 17 -16 93 -46 104 -42 13 5 54
76 54 94 0 10 -76 52 -93 52 -7 0 -25 -23 -40 -51z m63 -33 c-13 -13 -35 7
-25 24 5 8 11 8 21 -1 10 -8 12 -15 4 -23z"/>
<path d="M1605 2890 c-14 -27 -25 -52 -25 -54 0 -3 22 -17 50 -31 l50 -25 25
41 c40 63 40 65 -8 93 -24 14 -49 26 -55 26 -7 0 -23 -22 -37 -50z m60 -38
c-3 -3 -11 0 -18 7 -9 10 -8 11 6 5 10 -3 15 -9 12 -12z"/>
<path d="M1767 2889 c-16 -28 -27 -52 -25 -54 2 -1 26 -14 55 -29 l52 -26 25
46 c14 26 26 52 26 58 0 11 -80 56 -98 56 -4 0 -20 -23 -35 -51z m103 1 c0 -5
-5 -10 -11 -10 -5 0 -7 5 -4 10 3 6 8 10 11 10 2 0 4 -4 4 -10z"/>
<path d="M387 2878 c-16 -28 -27 -52 -25 -53 6 -6 33 20 56 52 26 37 26 39 9
46 -7 3 -24 -16 -40 -45z"/>
<path d="M1163 2878 c-15 -29 -29 -56 -31 -60 -2 -4 10 -14 26 -22 34 -18 37
-16 72 53 l22 45 -22 18 c-12 10 -26 18 -31 18 -5 0 -21 -24 -36 -52z m31 -23
c-4 -8 -11 -15 -16 -15 -6 0 -5 6 2 15 7 8 14 15 16 15 2 0 1 -7 -2 -15z"/>
<path d="M1918 2861 c-16 -27 -28 -52 -28 -55 0 -6 121 -69 124 -64 27 38 56
102 50 108 -11 11 -103 60 -112 60 -4 0 -19 -22 -34 -49z m52 25 c0 -3 -4 -8
-10 -11 -5 -3 -10 -1 -10 4 0 6 5 11 10 11 6 0 10 -2 10 -4z m60 -51 c-7 -9
-15 -13 -17 -11 -7 7 7 26 19 26 6 0 6 -6 -2 -15z"/>
<path d="M290 2850 c0 -5 5 -10 10 -10 6 0 10 5 10 10 0 6 -4 10 -10 10 -5 0
-10 -4 -10 -10z"/>
<path d="M325 2840 c-3 -5 -1 -10 4 -10 6 0 11 5 11 10 0 6 -2 10 -4 10 -3 0
-8 -4 -11 -10z"/>
<path d="M1242 2828 c-16 -21 -42 -76 -42 -91 0 -7 21 -23 47 -36 53 -26 54
-25 94 51 l19 38 -50 25 c-58 29 -55 29 -68 13z m-2 -88 c0 -5 -2 -10 -4 -10
-3 0 -8 5 -11 10 -3 6 -1 10 4 10 6 0 11 -4 11 -10z m50 -20 c0 -5 -4 -10 -9
-10 -6 0 -13 5 -16 10 -3 6 1 10 9 10 9 0 16 -4 16 -10z"/>
<path d="M1385 2790 c-14 -27 -25 -52 -25 -54 0 -7 101 -59 105 -54 20 26 55
100 50 108 -7 12 -79 50 -94 50 -6 0 -22 -22 -36 -50z m65 -31 c0 -4 -7 -6
-15 -3 -8 4 -15 10 -15 15 0 4 7 6 15 3 8 -4 15 -10 15 -15z"/>
<path d="M1536 2764 c-14 -26 -26 -52 -26 -59 0 -11 97 -62 103 -54 6 7 57
101 57 105 0 4 -96 54 -104 54 -2 0 -16 -21 -30 -46z m58 -35 c-8 -14 -24 -10
-24 6 0 9 6 12 15 9 8 -4 12 -10 9 -15z"/>
<path d="M1698 2761 c-16 -27 -28 -52 -28 -55 0 -5 94 -56 104 -56 10 0 57
101 51 109 -5 10 -81 51 -93 51 -4 0 -19 -22 -34 -49z m102 -5 c0 -3 -4 -8
-10 -11 -5 -3 -10 -1 -10 4 0 6 5 11 10 11 6 0 10 -2 10 -4z m-85 -46 c3 -6
-1 -7 -9 -4 -18 7 -21 14 -7 14 6 0 13 -4 16 -10z m50 -30 c3 -5 1 -10 -4 -10
-6 0 -11 5 -11 10 0 6 2 10 4 10 3 0 8 -4 11 -10z"/>
<path d="M1090 2743 c-36 -56 -37 -69 -9 -83 30 -17 45 -7 74 49 l25 50 -22
15 c-32 23 -35 21 -68 -31z m21 -26 c-10 -9 -11 -8 -5 6 3 10 9 15 12 12 3 -3
0 -11 -7 -18z"/>
<path d="M1835 2709 c-20 -39 -35 -72 -33 -74 1 -1 28 -17 59 -34 44 -24 58
-29 66 -19 14 19 73 124 73 132 0 5 -113 66 -123 66 -3 0 -21 -32 -42 -71z
m123 -14 c-6 -14 -15 -25 -20 -25 -11 0 -10 7 4 30 18 29 30 25 16 -5z m-38
-74 c0 -13 -12 -20 -25 -14 -8 2 -11 11 -9 18 6 14 34 10 34 -4z"/>
<path d="M2 2692 c-1 -14 -1 -24 1 -21 1 2 8 11 15 20 10 13 10 18 -1 22 -8 3
-14 -4 -15 -21z"/>
<path d="M109 2693 c-13 -16 -12 -17 4 -4 9 7 17 15 17 17 0 8 -8 3 -21 -13z"/>
<path d="M1165 2685 c-8 -14 -22 -36 -30 -50 -9 -14 -13 -30 -10 -35 7 -12 79
-50 94 -50 10 0 61 82 61 98 0 8 -84 62 -96 62 -2 0 -10 -11 -19 -25z m85 -35
c0 -5 -4 -10 -9 -10 -6 0 -13 5 -16 10 -3 6 1 10 9 10 9 0 16 -4 16 -10z m-85
-40 c3 -6 -1 -7 -9 -4 -18 7 -21 14 -7 14 6 0 13 -4 16 -10z m50 -30 c3 -6 -1
-7 -9 -4 -18 7 -21 14 -7 14 6 0 13 -4 16 -10z"/>
<path d="M1316 2664 c-14 -26 -26 -52 -26 -59 0 -11 97 -62 104 -54 9 10 56
96 56 102 0 6 -93 57 -104 57 -2 0 -16 -21 -30 -46z m60 -25 c3 -6 2 -15 -4
-21 -6 -6 -12 -6 -17 3 -5 8 -4 10 3 5 7 -4 12 -3 12 3 0 5 -6 12 -12 14 -10
4 -10 6 -1 6 6 1 15 -4 19 -10z"/>
<path d="M1000 2650 c-11 -22 -18 -40 -15 -40 2 0 14 18 25 40 11 22 18 40 15
40 -2 0 -14 -18 -25 -40z"/>
<path d="M1461 2628 c-17 -28 -28 -55 -25 -60 7 -12 80 -48 97 -48 12 0 57 78
57 100 0 5 -22 21 -50 35 l-50 25 -29 -52z m64 -28 c3 -5 2 -10 -4 -10 -5 0
-13 5 -16 10 -3 6 -2 10 4 10 5 0 13 -4 16 -10z"/>
<path d="M1628 2631 c-16 -27 -28 -53 -28 -58 0 -9 83 -53 100 -53 8 0 60 90
60 104 0 5 -94 56 -102 56 -2 0 -15 -22 -30 -49z m58 -22 c10 -17 -14 -35 -28
-21 -9 9 -9 12 1 12 7 0 9 5 6 10 -3 6 -2 10 4 10 5 0 13 -5 17 -11z"/>
<path d="M75 2640 c-9 -16 -13 -30 -11 -30 3 0 12 14 21 30 9 17 13 30 11 30
-3 0 -12 -13 -21 -30z"/>
<path d="M162 2630 c-14 -23 -5 -26 20 -6 10 7 15 16 11 19 -10 11 -18 8 -31
-13z"/>
<path d="M1033 2638 c-6 -7 -20 -32 -33 -56 -23 -41 -23 -42 -4 -57 32 -24 48
-17 77 35 33 61 33 64 2 78 -32 15 -30 15 -42 0z"/>
<path d="M1627 2323 c-166 -308 -193 -361 -186 -366 20 -16 101 -57 112 -57 8
0 84 132 183 317 93 174 170 320 172 324 3 7 -108 69 -122 69 -2 0 -74 -129
-159 -287z"/>
<path d="M2016 2573 c-6 -14 -5 -15 5 -6 7 7 10 15 7 18 -3 3 -9 -2 -12 -12z"/>
<path d="M950 2560 c-6 -11 -8 -20 -6 -20 3 0 10 9 16 20 6 11 8 20 6 20 -3 0
-10 -9 -16 -20z"/>
<path d="M1080 2533 c-16 -26 -30 -54 -30 -60 0 -7 22 -24 49 -38 37 -18 51
-21 59 -12 17 23 56 97 51 100 -2 2 -25 16 -51 31 l-48 27 -30 -48z m20 -57
c0 -11 -19 -15 -25 -6 -3 5 1 10 9 10 9 0 16 -2 16 -4z m35 -26 c3 -5 1 -10
-4 -10 -6 0 -11 5 -11 10 0 6 2 10 4 10 3 0 8 -4 11 -10z"/>
<path d="M1240 2524 c-18 -30 -31 -56 -29 -58 8 -5 102 -56 105 -56 1 0 16 25
32 55 33 60 33 59 -35 94 l-42 21 -31 -56z m59 -23 c7 -5 9 -11 5 -14 -5 -3
-15 1 -22 9 -14 16 -5 18 17 5z"/>
<path d="M214 2556 c11 -9 29 -16 40 -15 17 1 16 2 -6 9 -14 4 -32 11 -40 15
-7 3 -4 -1 6 -9z"/>
<path d="M1385 2490 c-14 -27 -25 -52 -25 -54 0 -6 95 -56 104 -56 7 0 56 96
56 108 0 8 -83 52 -100 52 -5 0 -21 -22 -35 -50z m70 -20 c3 -5 1 -10 -5 -10
-6 0 -8 -4 -5 -10 4 -6 -1 -7 -11 -3 -11 4 -13 8 -6 11 7 2 10 8 6 13 -3 5 -1
9 5 9 5 0 13 -4 16 -10z"/>
<path d="M1572 2528 c-14 -19 -42 -75 -42 -87 0 -13 90 -62 101 -55 5 3 20 27
34 54 l25 48 -45 26 c-49 29 -58 31 -73 14z m48 -57 c0 -3 -4 -12 -9 -19 -6
-10 -10 -10 -21 3 -9 11 -9 15 -1 15 7 0 9 4 6 10 -3 6 1 7 9 4 9 -3 16 -9 16
-13z"/>
<path d="M926 2513 c-6 -14 -5 -15 5 -6 7 7 10 15 7 18 -3 3 -9 -2 -12 -12z"/>
<path d="M227 2513 c-4 -3 -7 -11 -7 -17 0 -6 5 -5 12 2 6 6 9 14 7 17 -3 3
-9 2 -12 -2z"/>
<path d="M931 2458 l-31 -53 21 -17 c34 -28 47 -22 77 38 26 55 27 56 8 70
-32 23 -43 17 -75 -38z"/>
<path d="M890 2450 c-11 -22 -18 -40 -15 -40 2 0 14 18 25 40 11 22 18 40 15
40 -2 0 -14 -18 -25 -40z"/>
<path d="M1022 2428 c-5 -7 -19 -32 -31 -55 l-21 -41 46 -26 c26 -14 52 -26
58 -26 10 0 31 33 64 102 3 6 -88 58 -101 58 -3 0 -9 -6 -15 -12z m3 -88 c3
-5 2 -10 -4 -10 -5 0 -13 5 -16 10 -3 6 -2 10 4 10 5 0 13 -4 16 -10z m35 -30
c0 -5 -2 -10 -4 -10 -3 0 -8 5 -11 10 -3 6 -1 10 4 10 6 0 11 -4 11 -10z"/>
<path d="M1166 2390 c-15 -27 -24 -55 -21 -60 7 -12 79 -50 94 -50 14 0 63 98
56 111 -7 10 -79 49 -93 49 -5 0 -21 -22 -36 -50z m59 -30 c3 -6 -1 -7 -9 -4
-18 7 -21 14 -7 14 6 0 13 -4 16 -10z"/>
<path d="M1315 2360 c-14 -27 -25 -53 -25 -57 0 -4 22 -20 49 -35 37 -20 52
-24 59 -15 11 14 52 94 52 101 0 6 -95 56 -104 56 -3 0 -17 -22 -31 -50z m56
-29 c6 9 9 10 9 2 0 -6 -4 -15 -10 -18 -14 -9 -32 4 -23 18 5 8 8 7 11 -2 4
-11 6 -11 13 0z"/>
<path d="M1502 2398 c-5 -7 -19 -32 -30 -55 -24 -45 -22 -48 36 -77 19 -10 40
-15 47 -12 14 5 55 76 55 95 0 8 -81 61 -93 61 -3 0 -9 -6 -15 -12z m42 -67
c3 -4 3 -11 0 -14 -8 -8 -34 3 -34 14 0 11 27 12 34 0z"/>
<path d="M827 2338 c-282 -511 -347 -632 -343 -635 5 -5 26 32 186 327 67 124
140 258 162 298 22 39 37 72 34 72 -3 0 -21 -28 -39 -62z"/>
<path d="M852 2314 c-27 -55 -27 -56 -7 -70 31 -23 48 -13 79 45 28 52 28 55
11 68 -35 25 -54 16 -83 -43z"/>
<path d="M945 2285 c-8 -14 -22 -36 -30 -50 -22 -37 -19 -42 36 -71 42 -21 54
-23 61 -12 18 27 48 88 48 97 0 6 -22 22 -50 36 l-49 25 -16 -25z m80 -35 c3
-5 1 -10 -4 -10 -6 0 -11 5 -11 10 0 6 2 10 4 10 3 0 8 -4 11 -10z m-80 -40
c3 -5 1 -10 -4 -10 -6 0 -11 5 -11 10 0 6 2 10 4 10 3 0 8 -4 11 -10z m40 -30
c3 -5 1 -10 -4 -10 -6 0 -11 5 -11 10 0 6 2 10 4 10 3 0 8 -4 11 -10z"/>
<path d="M1095 2260 c-14 -27 -25 -54 -25 -59 0 -6 22 -22 49 -36 38 -19 51
-22 59 -12 14 17 54 98 50 101 -15 11 -98 56 -102 56 -3 0 -17 -22 -31 -50z
m59 -41 c-6 -11 -24 -2 -24 11 0 5 7 7 15 4 8 -4 12 -10 9 -15z"/>
<path d="M1866 2295 c-9 -26 -7 -32 5 -12 6 10 9 21 6 23 -2 3 -7 -2 -11 -11z"/>
<path d="M1237 2215 l-27 -55 52 -26 c58 -30 59 -29 99 48 l19 36 -46 26 c-26
14 -52 26 -58 26 -7 0 -24 -25 -39 -55z m58 -25 c3 -5 2 -10 -4 -10 -5 0 -13
5 -16 10 -3 6 -2 10 4 10 5 0 13 -4 16 -10z"/>
<path d="M1405 2220 c-14 -27 -25 -51 -25 -54 0 -6 90 -56 101 -56 9 0 59 92
59 108 0 8 -83 52 -100 52 -5 0 -21 -22 -35 -50z m65 -31 c0 -5 -7 -9 -15 -9
-9 0 -12 6 -9 15 6 15 24 11 24 -6z"/>
<path d="M778 2180 c-16 -28 -28 -54 -28 -58 0 -9 43 -32 58 -32 4 0 21 25 37
56 29 54 30 55 11 70 -33 24 -50 16 -78 -36z"/>
<path d="M877 2163 c-2 -5 -16 -29 -31 -55 l-27 -47 44 -25 c24 -14 51 -26 59
-26 12 0 68 84 68 103 0 6 -89 57 -101 57 -4 0 -10 -3 -12 -7z m73 -53 c0 -5
-2 -10 -4 -10 -3 0 -8 5 -11 10 -3 6 -1 10 4 10 6 0 11 -4 11 -10z m-35 -70
c3 -6 -1 -7 -9 -4 -18 7 -21 14 -7 14 6 0 13 -4 16 -10z"/>
<path d="M1035 2145 c-8 -14 -22 -36 -30 -50 -9 -14 -13 -30 -10 -35 11 -17
86 -52 101 -46 7 3 25 28 39 55 l25 51 -50 25 c-27 14 -52 25 -54 25 -3 0 -12
-11 -21 -25z m44 -54 c8 -5 9 -11 3 -15 -5 -3 -15 1 -22 9 -14 16 -3 20 19 6z"/>
<path d="M1185 2115 c-8 -14 -22 -36 -30 -50 -8 -13 -15 -28 -15 -33 0 -8 90
-62 104 -62 7 0 56 95 56 109 0 6 -22 22 -50 36 l-49 25 -16 -25z m46 -68
c-13 -13 -31 0 -24 19 4 11 8 12 20 3 9 -8 10 -16 4 -22z"/>
<path d="M1335 2090 c-14 -27 -25 -54 -25 -59 0 -6 22 -22 49 -36 38 -19 51
-22 59 -12 11 14 52 94 52 101 0 6 -95 56 -104 56 -3 0 -17 -22 -31 -50z m56
-34 c5 3 9 0 9 -5 0 -6 -7 -11 -15 -11 -8 0 -15 8 -14 18 0 10 3 12 6 4 2 -6
9 -10 14 -6z"/>
<path d="M722 2073 c-19 -28 -52 -88 -52 -96 0 -3 14 -10 31 -17 34 -14 35
-14 72 52 l27 47 -29 20 -29 21 -20 -27z"/>
<path d="M2041 2066 c-15 -18 -26 -82 -15 -89 19 -11 62 5 68 26 5 21 -18 77
-33 77 -5 0 -14 -6 -20 -14z m29 -15 c0 -6 -4 -13 -10 -16 -5 -3 -10 1 -10 9
0 9 5 16 10 16 6 0 10 -4 10 -9z"/>
<path d="M780 1988 c-16 -29 -30 -56 -30 -60 0 -4 23 -19 52 -34 58 -30 59
-29 98 48 22 41 21 43 -47 77 l-43 21 -30 -52z m100 -12 c0 -3 -4 -8 -10 -11
-5 -3 -10 -1 -10 4 0 6 5 11 10 11 6 0 10 -2 10 -4z"/>
<path d="M965 2015 c-8 -14 -22 -36 -30 -50 -8 -13 -15 -29 -15 -34 0 -9 85
-61 100 -61 8 0 60 93 60 106 0 5 -22 22 -50 37 l-49 28 -16 -26z m42 -65 c-1
-11 -5 -20 -9 -20 -11 0 -20 19 -13 30 11 17 24 11 22 -10z"/>
<path d="M2148 2010 c-16 -25 -25 -25 -31 -2 -12 43 -4 -121 8 -183 l14 -70
-5 110 c-3 77 -2 105 5 94 16 -25 61 -13 61 16 0 20 -23 55 -36 55 -2 0 -9 -9
-16 -20z m24 -42 c-9 -9 -12 -7 -12 12 0 19 3 21 12 12 9 -9 9 -15 0 -24z"/>
<path d="M1944 2009 c-11 -19 -23 -81 -17 -95 12 -32 56 -11 65 31 3 11 5 -35
4 -102 -1 -148 16 -151 22 -3 4 95 3 101 -22 130 -14 18 -26 36 -26 41 0 13
-17 11 -26 -2z m3 -71 c-3 -8 -6 -5 -6 6 -1 11 2 17 5 13 3 -3 4 -12 1 -19z"/>
<path d="M1096 1954 c-14 -26 -26 -52 -26 -58 0 -12 77 -56 97 -56 10 0 63 87
63 104 0 7 -85 56 -98 56 -5 0 -22 -21 -36 -46z m64 -32 c0 -5 -7 -9 -15 -9
-8 0 -15 4 -15 9 0 4 7 8 15 8 8 0 15 -4 15 -8z"/>
<path d="M1282 1988 c-5 -7 -19 -32 -31 -55 l-21 -42 43 -26 c24 -14 50 -25
58 -25 12 0 32 30 67 102 3 6 -88 58 -101 58 -3 0 -9 -6 -15 -12z m38 -73 c0
-9 -6 -12 -15 -9 -8 4 -12 10 -9 15 8 14 24 10 24 -6z"/>
<path d="M622 1895 l-30 -56 24 -15 c13 -9 30 -14 39 -11 13 6 70 106 63 112
-10 8 -48 25 -57 25 -5 0 -23 -25 -39 -55z"/>
<path d="M1382 1865 c-18 -36 -32 -70 -32 -75 0 -5 27 -23 59 -40 l59 -29 25
42 c13 23 32 56 41 74 l16 32 -57 30 c-31 17 -62 31 -68 31 -6 0 -25 -29 -43
-65z m132 -10 c-3 -8 -12 -11 -19 -9 -8 3 -11 12 -9 19 3 8 12 11 19 9 8 -3
11 -12 9 -19z m-34 -62 c-1 -11 -26 -43 -33 -43 -4 0 -1 11 5 25 10 23 28 35
28 18z"/>
<path d="M702 1845 c-33 -60 -33 -59 35 -94 l43 -21 30 47 c16 27 30 53 30 60
0 11 -83 63 -101 63 -4 0 -21 -25 -37 -55z"/>
<path d="M872 1848 c-16 -29 -28 -56 -25 -61 2 -4 26 -19 53 -32 l50 -25 30
52 c16 29 30 56 30 60 0 7 -92 58 -104 58 -2 0 -17 -24 -34 -52z m68 -27 c0
-14 -18 -23 -30 -16 -6 4 -8 11 -5 16 8 12 35 12 35 0z"/>
<path d="M1021 1815 c-17 -30 -31 -57 -31 -60 0 -10 101 -56 111 -50 5 4 20
28 34 55 27 54 27 54 -42 89 l-41 21 -31 -55z m63 -40 c-5 -12 -10 -13 -20 -4
-19 15 -18 19 6 19 13 0 18 -5 14 -15z"/>
<path d="M1212 1857 c-10 -13 -52 -93 -52 -101 0 -6 90 -56 101 -56 9 0 59 92
59 107 0 4 -22 20 -49 35 -38 22 -51 25 -59 15z m33 -77 c3 -6 -1 -7 -9 -4
-18 7 -21 14 -7 14 6 0 13 -4 16 -10z"/>
<path d="M6287 1864 c-3 -3 -3 -12 0 -20 3 -8 0 -14 -5 -14 -6 0 -14 -17 -17
-37 -4 -21 -11 -51 -16 -67 -5 -16 -7 -31 -5 -33 8 -8 25 32 45 106 18 63 17
84 -2 65z"/>
<path d="M6455 1840 c3 -5 8 -10 11 -10 2 0 4 5 4 10 0 6 -5 10 -11 10 -5 0
-7 -4 -4 -10z"/>
<path d="M1840 1800 c-6 -24 -7 -47 -2 -56 8 -14 10 -14 25 1 17 17 22 51 11
79 -10 27 -23 18 -34 -24z"/>
<path d="M545 1754 l-30 -56 24 -19 c13 -11 28 -18 34 -16 5 1 23 28 41 59 31
56 31 57 11 72 -34 26 -49 18 -80 -40z"/>
<path d="M6202 1790 c0 -14 2 -19 5 -12 2 6 2 18 0 25 -3 6 -5 1 -5 -13z"/>
<path d="M1890 1764 c0 -14 4 -23 10 -19 6 3 10 15 10 26 0 10 -4 19 -10 19
-5 0 -10 -12 -10 -26z"/>
<path d="M6160 1779 c0 -5 5 -7 10 -4 6 3 10 8 10 11 0 2 -4 4 -10 4 -5 0 -10
-5 -10 -11z"/>
<path d="M6488 1764 c-4 -18 -14 -39 -23 -48 -9 -9 -12 -16 -6 -16 17 0 43 47
39 72 -3 20 -4 19 -10 -8z"/>
<path d="M626 1705 c-17 -30 -28 -56 -25 -58 2 -3 27 -16 56 -31 l51 -26 31
55 c17 30 31 57 31 59 0 7 -88 56 -102 56 -7 0 -26 -25 -42 -55z"/>
<path d="M776 1674 c-25 -47 -46 -88 -46 -90 0 -7 87 -54 101 -54 8 0 36 40
62 90 l48 89 -50 26 c-28 14 -55 25 -60 25 -5 0 -30 -39 -55 -86z m64 -68 c0
-3 -4 -8 -10 -11 -5 -3 -10 -1 -10 4 0 6 5 11 10 11 6 0 10 -2 10 -4z"/>
<path d="M1298 1706 c-21 -41 -24 -57 -15 -64 28 -22 100 -53 113 -48 14 6 54
77 54 99 0 11 -98 67 -118 67 -4 0 -20 -24 -34 -54z m92 -76 c0 -5 -5 -10 -11
-10 -5 0 -7 5 -4 10 3 6 8 10 11 10 2 0 4 -4 4 -10z"/>
<path d="M6402 1718 c-5 -18 -10 -25 -11 -15 -2 37 -21 15 -21 -25 0 -24 -7
-49 -17 -60 -27 -30 1 -20 31 11 20 21 30 43 33 75 6 54 0 59 -15 14z"/>
<path d="M972 1717 c-11 -14 -112 -195 -112 -201 0 -7 92 -56 104 -56 12 0
116 188 116 208 0 7 -22 23 -49 37 -38 19 -51 22 -59 12z m-14 -213 c-4 -3
-12 5 -18 18 -12 22 -12 22 6 6 10 -10 15 -20 12 -24z"/>
<path d="M1115 1680 c-14 -27 -25 -54 -25 -59 0 -9 85 -61 99 -61 7 0 61 96
61 110 0 8 -90 60 -104 60 -3 0 -17 -22 -31 -50z m10 -60 c3 -5 1 -10 -4 -10
-6 0 -11 5 -11 10 0 6 2 10 4 10 3 0 8 -4 11 -10z"/>
<path d="M6336 1680 c-9 -28 -25 -67 -37 -86 -22 -36 -13 -46 14 -16 16 18 52
141 43 149 -2 3 -12 -18 -20 -47z"/>
<path d="M2128 1618 c5 -113 20 -168 21 -77 1 74 -9 159 -18 159 -3 0 -5 -37
-3 -82z"/>
<path d="M1993 1570 c0 -36 2 -50 4 -32 2 17 2 47 0 65 -2 17 -4 3 -4 -33z"/>
<path d="M1225 1570 c-14 -28 -23 -55 -20 -61 7 -11 100 -59 114 -59 10 0 61
90 61 108 0 8 -103 62 -120 62 -5 0 -21 -23 -35 -50z m86 -87 c-8 -15 -10 -15
-11 -2 0 17 10 32 18 25 2 -3 -1 -13 -7 -23z"/>
<path d="M6117 1607 c-11 -29 -9 -43 4 -30 6 6 9 19 7 29 -3 18 -4 18 -11 1z"/>
<path d="M1062 1578 c-8 -11 -56 -99 -70 -130 -3 -7 90 -58 105 -58 8 0 83
131 83 144 0 5 -94 56 -103 56 -3 0 -9 -6 -15 -12z m38 -139 c0 -5 -7 -9 -15
-9 -15 0 -20 12 -9 23 8 8 24 -1 24 -14z"/>
<path d="M6092 1539 c-7 -11 -17 -32 -23 -47 l-9 -27 25 28 c14 15 25 37 25
48 0 24 -2 24 -18 -2z"/>
<path d="M6293 1509 c-77 -66 -137 -128 -130 -135 2 -3 46 36 98 85 98 94 115
121 32 50z"/>
<path d="M1156 1441 c-15 -28 -26 -56 -26 -64 0 -13 116 -75 123 -66 12 14 60
110 56 113 -3 3 -102 55 -121 64 -4 2 -18 -19 -32 -47z m89 -91 c-3 -5 -10
-10 -16 -10 -5 0 -9 5 -9 10 0 6 7 10 16 10 8 0 12 -4 9 -10z"/>
<path d="M2075 1290 c-4 -6 -4 -24 0 -41 4 -16 2 -35 -3 -42 -13 -15 11 -52
27 -42 6 3 11 35 11 71 0 49 -3 64 -14 64 -8 0 -18 -5 -21 -10z"/>
<path d="M6240 1229 c0 -15 7 -33 16 -40 15 -12 16 -11 9 11 -14 46 -24 58
-25 29z"/>
<path d="M6303 1107 c3 -9 2 -19 -4 -22 -5 -4 -7 -11 -3 -16 3 -5 10 -7 15 -4
13 9 11 42 -3 51 -8 5 -9 2 -5 -9z"/>
<path d="M6304 964 c-15 -6 -5 -46 10 -41 13 4 22 47 9 46 -4 0 -13 -3 -19 -5z"/>
<path d="M2199 788 c-17 -29 -20 -50 -8 -42 12 7 31 55 25 61 -2 3 -10 -6 -17
-19z"/>
<path d="M2130 796 c0 -2 8 -10 18 -17 15 -13 16 -12 3 4 -13 16 -21 21 -21
13z"/>
<path d="M2039 763 c-13 -16 -12 -17 4 -4 16 13 21 21 13 21 -2 0 -10 -8 -17
-17z"/>
<path d="M2090 762 c0 -5 7 -9 15 -9 8 0 15 4 15 9 0 4 -7 8 -15 8 -8 0 -15
-4 -15 -8z"/>
<path d="M2215 750 c-8 -13 5 -13 25 0 13 8 13 10 -2 10 -9 0 -20 -4 -23 -10z"/>
<path d="M2070 719 c0 -11 4 -18 10 -14 5 3 7 12 3 20 -7 21 -13 19 -13 -6z"/>
<path d="M1960 714 c0 -12 7 -27 15 -34 19 -16 19 -3 0 30 -13 24 -14 24 -15
4z"/>
<path d="M2004 713 c2 -10 6 -17 10 -16 15 3 16 11 2 22 -12 10 -14 9 -12 -6z"/>
<path d="M2105 690 c-19 -8 -19 -9 3 -9 12 -1 22 4 22 9 0 6 -1 10 -2 9 -2 0
-12 -4 -23 -9z"/>
<path d="M2161 693 c-1 -6 -11 -15 -22 -18 -17 -6 -19 -9 -8 -16 17 -10 44 13
36 33 -3 8 -6 9 -6 1z"/>
<path d="M1940 681 c0 -5 7 -14 15 -21 16 -14 18 -10 9 14 -6 17 -24 22 -24 7z"/>
<path d="M2020 675 c-8 -9 -8 -15 -2 -15 6 0 12 6 15 13 3 8 10 7 26 -7 22
-20 30 -9 9 12 -16 16 -33 15 -48 -3z"/>
<path d="M4990 523 c0 -5 7 -18 15 -29 12 -16 14 -16 15 -3 0 9 -7 22 -15 29
-8 7 -15 8 -15 3z"/>
<path d="M5010 441 c0 -6 4 -13 10 -16 6 -3 7 1 4 9 -7 18 -14 21 -14 7z"/>
<path d="M5082 410 c7 -11 17 -20 22 -20 5 0 1 9 -9 20 -10 11 -20 20 -22 20
-2 0 2 -9 9 -20z"/>
<path d="M4490 330 c-9 -6 -10 -10 -3 -10 6 0 15 5 18 10 8 12 4 12 -15 0z"/>
<path d="M2415 180 c-20 -21 -24 -30 -14 -30 20 0 63 46 51 54 -5 3 -22 -8
-37 -24z"/>
<path d="M2435 160 c-3 -5 -2 -10 4 -10 5 0 13 5 16 10 3 6 2 10 -4 10 -5 0
-13 -4 -16 -10z"/>
<path d="M2625 160 c-3 -5 -2 -10 4 -10 5 0 13 5 16 10 3 6 2 10 -4 10 -5 0
-13 -4 -16 -10z"/>
<path d="M4620 118 c0 -6 -12 -26 -26 -45 -43 -57 -32 -68 70 -71 l88 -3 -59
66 c-57 64 -73 76 -73 53z"/>
<path d="M2690 100 c0 -5 5 -10 11 -10 5 0 7 5 4 10 -3 6 -8 10 -11 10 -2 0
-4 -4 -4 -10z"/>
<path d="M2646 74 c-18 -26 -18 -26 3 -15 11 7 21 18 21 26 0 20 -2 19 -24
-11z"/>
<path d="M2610 20 c0 -11 5 -20 10 -20 6 0 10 9 10 20 0 11 -4 20 -10 20 -5 0
-10 -9 -10 -20z"/>
<path d="M2710 29 c0 -5 5 -7 10 -4 6 3 10 8 10 11 0 2 -4 4 -10 4 -5 0 -10
-5 -10 -11z"/>
</g>
</svg>
