<?xml version="1.0" standalone="no"?>
<!DOCTYPE svg PUBLIC "-//W3C//DTD SVG 20010904//EN"
 "http://www.w3.org/TR/2001/REC-SVG-20010904/DTD/svg10.dtd">
<svg version="1.0" xmlns="http://www.w3.org/2000/svg"
 width="300" height="300" viewBox="0 0 300 300" 
 preserveAspectRatio="xMidYMid meet">

<metadata>
Created by potrace 1.10, written by Peter Selinger 2001-2011
</metadata>
<g transform="translate(0.000000,300.000000) scale(0.100000,-0.100000)"
fill="#000000" stroke="none">
<path d="M1375 2140 c-173 -24 -322 -107 -430 -238 -96 -115 -145 -248 -148
-396 -2 -103 6 -157 37 -246 39 -114 107 -212 199 -288 25 -21 27 -26 21 -70
-8 -65 9 -82 80 -82 28 0 57 5 63 11 7 7 17 8 29 1 22 -12 517 -13 535 -1 7 4
23 2 37 -4 21 -10 27 -8 48 16 13 16 24 38 24 51 0 12 11 37 24 55 14 18 22
40 19 48 -3 8 9 30 31 52 l37 37 -26 12 c-30 14 -34 36 -5 27 12 -4 27 -2 34
5 10 8 17 7 28 -3 25 -25 75 -26 98 -2 35 37 35 75 2 117 -20 26 -28 46 -26
65 2 20 0 18 -8 -9 -6 -21 -16 -38 -21 -38 -5 0 -6 8 -2 18 4 9 10 42 12 73 4
42 1 59 -11 72 -12 11 -13 18 -5 23 7 4 19 -1 27 -12 14 -18 14 -18 7 6 -4 14
-13 60 -21 104 -17 102 -29 136 -72 220 -103 197 -341 329 -566 313 -310 -22
-550 -260 -572 -567 -11 -148 52 -326 156 -442 72 -81 63 -110 -10 -35 -176
180 -229 453 -133 681 100 238 339 396 597 396 178 0 316 -59 446 -190 67 -66
94 -102 124 -163 42 -89 65 -183 66 -272 1 -49 3 -56 12 -41 16 27 4 168 -21
246 -94 296 -407 493 -716 450z m183 -90 c185 -30 345 -151 430 -325 39 -80
74 -235 52 -235 -12 0 -14 4 -29 90 -37 201 -196 374 -400 434 -72 21 -230 21
-302 0 -144 -43 -278 -152 -353 -288 -33 -59 -39 -78 -38 -130 0 -88 17 -203
32 -221 36 -44 173 -115 220 -115 9 0 34 12 55 26 l39 26 17 -24 c44 -57 45
-65 15 -121 -15 -29 -39 -71 -53 -94 l-24 -43 -74 0 -73 0 -52 58 c-64 71
-114 173 -134 274 -20 97 -20 130 0 226 43 209 193 376 394 440 101 33 175 38
278 22z m32 -56 c138 -32 288 -151 347 -276 28 -60 48 -118 40 -118 -2 0 -17
21 -33 46 -16 26 -61 73 -101 105 -103 83 -183 121 -288 135 -68 9 -91 19
-155 67 l-55 42 30 6 c54 12 149 9 215 -7z m-265 -25 c4 -6 37 -30 74 -53 51
-33 83 -45 138 -54 117 -19 191 -55 318 -153 44 -34 95 -103 95 -129 0 -15 -5
-16 -33 -7 -30 10 -32 14 -30 46 l2 36 -8 -33 c-5 -18 -29 -54 -53 -80 -25
-26 -53 -61 -63 -77 -11 -17 -20 -32 -22 -34 -5 -7 -37 41 -43 64 -3 11 -18
26 -33 33 -15 7 -27 17 -27 23 0 5 -13 9 -29 9 -16 0 -31 6 -35 15 -3 10 -19
15 -45 15 -22 0 -51 5 -65 11 -19 9 -31 8 -56 -5 -36 -17 -50 -14 -49 12 0 14
2 14 8 -2 7 -18 8 -18 14 5 4 13 7 54 7 90 0 83 -19 111 -101 146 -49 21 -59
30 -59 50 0 15 13 37 31 54 33 30 53 36 64 18z m-121 -67 c-14 -22 -44 -28
-55 -11 -10 17 41 53 56 38 6 -6 6 -15 -1 -27z m-27 -57 c2 -1 -17 -22 -41
-48 -25 -25 -60 -77 -78 -115 -29 -61 -36 -69 -52 -60 -22 13 -41 -4 -32 -27
4 -12 13 -15 27 -12 16 4 19 2 14 -11 -4 -9 -9 -34 -12 -55 -5 -35 -8 -38 -30
-32 -16 4 -22 2 -18 -5 3 -5 13 -10 21 -10 9 0 14 -11 15 -32 1 -20 8 1 19 53
24 114 81 228 151 304 l57 60 53 -19 c67 -23 82 -36 44 -36 -83 0 -215 -244
-215 -399 0 -40 3 -52 10 -41 8 13 10 13 10 -1 0 -39 78 -87 95 -59 4 7 -2 9
-19 4 -20 -5 -25 -3 -21 7 3 8 -4 18 -17 24 -63 27 -16 259 69 342 15 15 33
37 38 48 13 25 65 34 65 11 0 -9 3 -16 8 -16 7 0 5 -104 -3 -128 -3 -9 -13 -5
-30 12 -14 15 -34 26 -44 26 -33 0 -62 -44 -68 -103 -5 -49 -3 -57 16 -69 28
-17 29 -80 1 -108 -26 -26 -25 -31 5 -20 21 8 25 7 25 -10 0 -20 -45 -50 -75
-50 -13 0 -66 25 -162 78 -107 59 -64 318 77 464 40 41 52 49 72 43 12 -4 24
-8 25 -10z m190 -85 c7 -14 12 -45 12 -70 -1 -46 -3 -43 -14 23 -3 20 -16 47
-28 58 -21 20 -21 21 -2 17 11 -2 25 -14 32 -28z m-392 -79 c-3 -12 -11 -19
-16 -16 -5 4 -9 -8 -9 -26 0 -22 -3 -30 -10 -23 -12 12 4 74 22 85 17 11 21 4
13 -20z m310 -81 c7 -12 -33 -49 -52 -50 -15 0 -18 -20 -3 -20 6 0 10 -11 10
-25 0 -14 5 -25 11 -25 5 0 7 -4 4 -10 -10 -17 -34 -11 -45 10 -27 50 46 167
75 120z m191 -21 c4 -6 20 -9 38 -6 22 3 39 -1 55 -14 13 -10 31 -19 42 -19
10 0 22 -6 26 -14 4 -8 17 -15 28 -18 11 -2 21 -12 23 -22 3 -14 0 -17 -13
-13 -9 4 -14 3 -10 -3 3 -6 13 -10 20 -10 8 0 19 -9 25 -19 14 -27 13 -34 -4
-28 -16 6 -66 -68 -66 -97 0 -19 -21 -21 -38 -4 -18 18 -14 49 14 98 l25 45
-21 17 c-12 10 -27 18 -34 18 -6 0 -3 -5 7 -11 22 -13 22 -28 -2 -53 -10 -12
-26 -34 -36 -51 l-17 -30 20 25 c11 14 28 34 37 45 11 14 10 8 -4 -21 -11 -23
-17 -51 -14 -63 6 -22 -9 -27 -43 -14 -16 6 -16 7 2 15 15 6 12 7 -11 5 -44
-3 -43 22 6 111 23 42 35 71 26 63 -10 -7 -27 -31 -39 -53 -24 -42 -63 -60
-80 -37 -8 12 -9 11 -5 -1 2 -9 15 -15 31 -15 18 1 25 -3 21 -13 -3 -7 -5 -20
-5 -27 0 -9 -8 -11 -22 -8 -54 13 -55 32 -12 132 29 64 28 61 5 61 -13 0 -18
-7 -17 -22 2 -28 -28 -71 -57 -80 -18 -6 -17 -7 6 -4 21 3 27 0 23 -11 -3 -8
-6 -21 -6 -29 0 -8 -5 -14 -12 -14 -20 0 -48 32 -48 56 0 35 36 110 61 128 27
18 65 21 75 5z m-157 -20 c35 -12 36 -16 16 -43 -13 -16 -18 -17 -44 -6 -28
11 -32 22 -22 58 2 5 19 2 50 -9z m633 -12 c51 -18 54 -23 19 -30 -85 -17
-223 -318 -206 -451 l6 -49 -32 7 c-18 3 -44 16 -58 29 l-25 22 16 -25 15 -25
-63 0 c-35 1 -65 3 -68 6 -3 3 1 29 9 59 10 37 24 62 42 77 34 28 43 22 44
-30 2 -32 3 -35 6 -12 17 140 82 290 166 381 52 58 67 62 129 41z m85 -68 l28
-11 -32 -13 c-70 -29 -173 -254 -173 -375 0 -33 -4 -60 -10 -60 -5 0 -10 18
-10 40 0 22 -2 40 -4 40 -2 0 -13 3 -23 6 -15 6 -16 4 -5 -7 6 -7 12 -26 12
-41 0 -21 -5 -28 -20 -28 -14 0 -20 7 -20 23 0 38 33 192 38 177 3 -8 11 -19
19 -23 9 -6 12 -21 8 -50 -2 -23 -2 -33 1 -22 3 11 11 39 19 63 14 42 14 43
-10 54 -14 6 -25 15 -25 21 0 20 65 130 102 172 41 47 58 52 105 34z m-719
-36 c12 -22 -1 -58 -24 -71 -14 -8 -13 -10 8 -15 14 -4 41 -4 62 -2 23 3 35 1
31 -5 -3 -5 0 -10 7 -11 56 -3 77 -15 71 -40 -6 -21 -6 -21 -20 5 -18 34 -24
33 -21 -6 2 -25 -2 -34 -22 -45 l-25 -13 23 0 c13 0 37 13 53 30 l30 30 71
-10 c52 -8 74 -7 85 1 10 9 17 9 25 1 18 -18 -8 -58 -63 -98 -43 -31 -48 -40
-64 -104 -16 -67 -26 -82 -40 -60 -3 6 -2 10 4 10 5 0 14 21 20 48 5 26 13 55
16 64 5 12 0 18 -17 21 -21 5 -20 5 3 4 23 -2 109 45 109 58 0 3 -18 -4 -40
-15 -47 -24 -85 -25 -160 -5 -67 18 -72 18 -40 0 14 -8 36 -15 50 -15 29 0 66
-19 40 -20 -11 0 -11 -3 3 -11 16 -9 18 -19 12 -62 -9 -68 -19 -84 -47 -81
-13 1 -32 3 -44 3 -20 1 -20 2 -5 64 9 34 20 65 24 68 5 3 -4 14 -20 24 -15
10 -22 12 -15 4 6 -7 12 -23 12 -34 0 -26 -30 -118 -41 -125 -5 -3 -26 -4 -49
-2 -39 4 -51 14 -30 27 6 3 10 11 10 16 0 6 -12 -4 -26 -21 -39 -46 -43 -27
-5 25 17 24 43 70 58 101 l25 56 -21 27 c-47 57 -81 116 -81 139 0 54 47 85
68 45z m742 -54 c0 -11 -4 -17 -10 -14 -5 3 -10 1 -10 -5 0 -13 -92 -102 -98
-95 -7 6 29 66 43 72 8 3 13 9 10 13 -5 9 41 50 56 50 5 0 9 -9 9 -21z m-6
-68 c3 -5 0 -13 -7 -19 -15 -13 -42 1 -33 17 9 13 33 15 40 2z m-30 -39 c8
-13 -49 -61 -63 -53 -16 10 -5 34 22 47 29 15 35 16 41 6z m-94 -77 c-5 -27
-11 -58 -15 -67 -4 -10 2 -25 15 -38 l22 -22 -26 -26 c-20 -20 -28 -24 -38
-14 -9 9 -9 26 1 78 11 60 40 149 46 142 2 -2 -1 -25 -5 -53z m175 15 c8 0 15
-7 15 -15 0 -29 -29 -85 -44 -85 -19 0 -86 31 -86 40 0 10 49 0 56 -11 3 -5 9
-9 13 -9 10 0 33 51 26 58 -3 3 -5 0 -5 -6 0 -15 -17 -15 -53 1 -26 11 -27 13
-12 34 15 22 18 22 45 8 16 -8 36 -15 45 -15z m-130 -50 c3 -5 2 -16 -2 -24
-11 -20 -38 -3 -30 18 7 18 23 21 32 6z m-860 -217 l-6 -58 24 54 c33 78 52
80 44 5 -5 -60 -3 -59 27 19 9 22 22 37 32 37 9 0 14 -5 11 -12 -46 -113 -72
-158 -89 -158 -16 0 -18 5 -12 36 8 45 -11 39 -21 -6 -5 -22 -12 -30 -28 -30
-22 0 -22 2 -15 83 3 45 7 83 7 85 1 1 8 2 17 2 13 0 14 -9 9 -57z m210 43
c18 -13 19 -19 8 -71 -15 -71 -28 -87 -67 -83 -24 2 -32 8 -34 27 -6 37 19
110 42 126 25 18 28 18 51 1z m180 -23 l-6 -38 21 38 c13 23 28 37 40 37 26 0
25 -12 -1 -36 -35 -32 -40 -49 -24 -94 14 -41 14 -41 -8 -38 -17 2 -23 12 -28
38 l-5 35 -8 -37 c-6 -29 -13 -38 -28 -38 -15 0 -18 5 -14 17 4 9 11 37 16 62
6 25 12 56 15 69 3 12 12 22 21 22 12 0 14 -8 9 -37z m164 23 c14 -16 -1 -98
-25 -133 -16 -26 -55 -30 -73 -9 -16 19 5 112 30 137 22 22 52 25 68 5z m62
-1 c-1 -5 -6 -34 -12 -63 -7 -28 -10 -55 -6 -58 13 -14 25 9 37 71 8 43 17 65
26 65 8 0 14 -7 14 -15 0 -35 -24 -122 -38 -137 -19 -22 -58 -23 -70 -2 -13
23 18 156 35 152 8 -2 14 -7 14 -13z m169 -1 c0 -9 -9 -18 -20 -21 -15 -4 -22
-20 -31 -65 -11 -53 -30 -81 -45 -65 -3 2 2 32 10 65 19 73 19 73 1 66 -16 -7
-18 -3 -9 19 8 21 94 22 94 1z m-452 -27 c2 -16 -3 -36 -12 -46 -11 -12 -14
-27 -10 -49 6 -28 4 -32 -15 -32 -17 0 -21 6 -21 31 0 17 -4 28 -10 24 -5 -3
-10 -17 -10 -31 0 -18 -5 -24 -21 -24 -15 0 -19 5 -15 18 3 9 10 37 16 62 21
85 19 81 58 78 32 -3 37 -7 40 -31z"/>
<path d="M930 1286 c0 -11 60 -126 66 -126 3 0 20 11 37 24 32 24 181 66 235
66 18 0 23 3 15 11 -7 7 -31 6 -79 -4 -45 -9 -73 -11 -81 -5 -7 6 -33 8 -58 6
-25 -2 -45 0 -45 3 0 4 -12 9 -27 11 -16 3 -36 9 -45 13 -10 4 -18 4 -18 1z"/>
<path d="M1293 1234 c9 -16 -26 -58 -65 -77 l-33 -17 35 0 c31 0 38 5 58 41
19 32 21 44 11 53 -9 8 -10 8 -6 0z"/>
<path d="M1158 1160 c-51 -28 -60 -44 -17 -35 19 4 34 8 34 9 0 0 9 11 19 24
23 27 13 27 -36 2z"/>
<path d="M1135 1104 c-34 -17 -64 -44 -50 -44 6 0 30 14 55 30 48 32 45 40 -5
14z"/>
<path d="M1290 1917 c-1 -46 95 -92 143 -69 19 9 14 11 -30 11 -68 1 -83 8
-99 45 -8 19 -13 24 -14 13z"/>
<path d="M1515 1831 c39 -18 125 -94 125 -110 0 -4 9 -18 20 -31 l19 -22 32
27 c19 15 40 24 51 22 10 -3 16 -1 12 4 -8 13 -37 11 -76 -6 -34 -14 -36 -13
-46 9 -18 40 -73 96 -110 111 -51 22 -74 18 -27 -4z"/>
<path d="M1429 1726 c20 -25 138 -93 194 -112 43 -14 47 -19 47 -47 0 -32 1
-31 21 13 11 25 34 60 52 78 17 17 26 32 20 32 -26 0 -45 -15 -58 -46 l-14
-33 -53 15 c-62 19 -116 45 -178 87 -25 17 -39 23 -31 13z"/>
<path d="M1485 1720 c47 -32 112 -60 137 -59 15 0 18 3 8 6 -8 4 -48 21 -88
40 -82 38 -100 42 -57 13z"/>
<path d="M1790 1686 c0 -2 -7 -20 -16 -41 -18 -44 -4 -39 25 10 16 28 17 35 6
35 -8 0 -15 -2 -15 -4z"/>
<path d="M1040 1572 c0 -11 11 -24 25 -30 22 -10 24 -16 20 -59 l-4 -48 8 40
c5 22 14 52 19 66 9 23 8 28 -14 38 -36 16 -54 14 -54 -7z"/>
<path d="M1038 1438 c26 -13 43 -65 30 -90 -5 -10 -7 -18 -4 -18 2 0 12 -3 22
-7 11 -4 15 -3 11 4 -4 6 -8 31 -8 56 -2 37 -6 47 -26 56 -31 14 -55 13 -25
-1z"/>
<path d="M1705 1289 c-8 -24 -10 -21 34 -43 39 -18 36 -19 45 12 6 19 2 25
-28 37 -45 19 -43 19 -51 -6z"/>
<path d="M1703 1139 c32 -17 38 -25 35 -47 -2 -15 -7 -30 -11 -33 -5 -3 -2 -9
7 -12 13 -5 16 2 16 41 0 45 -2 49 -33 60 -50 18 -57 14 -14 -9z"/>
<path d="M1372 1147 c-7 -16 -12 -38 -11 -50 0 -18 3 -16 15 12 8 18 13 41 11
50 -3 12 -7 8 -15 -12z"/>
<path d="M1271 926 c-14 -56 -14 -56 3 -56 8 0 18 19 25 44 14 56 14 56 -3 56
-8 0 -18 -19 -25 -44z"/>
<path d="M1622 967 c-20 -24 -29 -101 -11 -95 15 5 32 60 27 91 -3 18 -4 19
-16 4z"/>
<path d="M1397 974 c-11 -11 -8 -44 3 -44 15 0 24 30 13 41 -5 5 -12 6 -16 3z"/>
</g>
</svg>
